<svg width="739" height="648" viewBox="0 0 739 648" fill="none" xmlns="http://www.w3.org/2000/svg">
<path d="M511.612 507.333C510.142 507.333 508.672 507.333 507.222 507.294C506.673 507.294 506.242 506.843 506.262 506.294C506.262 505.745 506.732 505.314 507.261 505.334C509.868 505.373 512.455 505.373 515.081 505.334C515.552 505.295 516.061 505.765 516.081 506.294C516.081 506.843 515.65 507.274 515.121 507.294C513.964 507.294 512.808 507.313 511.652 507.313L511.612 507.333ZM526.821 506.921C526.312 506.921 525.861 506.51 525.841 506C525.822 505.451 526.233 505.001 526.762 504.961C529.369 504.824 531.956 504.648 534.563 504.432C535.092 504.393 535.582 504.785 535.621 505.334C535.66 505.883 535.268 506.353 534.72 506.392C532.113 506.608 529.487 506.784 526.88 506.921C526.88 506.921 526.841 506.921 526.821 506.921ZM495.482 506.863C495.482 506.863 495.443 506.863 495.423 506.863C492.797 506.706 490.19 506.529 487.584 506.314C487.035 506.275 486.643 505.804 486.682 505.255C486.721 504.707 487.211 504.334 487.741 504.354C490.328 504.569 492.934 504.766 495.541 504.903C496.09 504.942 496.501 505.393 496.462 505.941C496.443 506.471 495.992 506.863 495.482 506.863ZM546.342 505.216C545.852 505.216 545.44 504.844 545.362 504.354C545.303 503.825 545.676 503.335 546.224 503.256C548.811 502.943 551.398 502.59 553.966 502.218C554.495 502.139 555.005 502.512 555.083 503.041C555.162 503.57 554.789 504.08 554.26 504.158C551.673 504.55 549.066 504.903 546.46 505.216C546.42 505.216 546.381 505.216 546.342 505.216ZM475.981 505.059C475.981 505.059 475.903 505.059 475.864 505.059C473.257 504.726 470.67 504.354 468.083 503.942C467.554 503.864 467.181 503.354 467.26 502.825C467.338 502.296 467.848 501.924 468.377 502.002C470.944 502.414 473.531 502.766 476.099 503.1C476.628 503.178 477.02 503.668 476.941 504.197C476.883 504.687 476.452 505.059 475.962 505.059H475.981ZM565.706 502.198C565.235 502.198 564.843 501.865 564.745 501.394C564.647 500.865 565 500.356 565.529 500.258C568.097 499.768 570.645 499.258 573.193 498.69C573.741 498.572 574.251 498.905 574.349 499.435C574.467 499.964 574.133 500.493 573.604 500.591C571.037 501.159 568.469 501.669 565.902 502.159C565.843 502.159 565.784 502.159 565.725 502.159L565.706 502.198ZM584.835 497.886C584.403 497.886 584.011 497.592 583.894 497.161C583.757 496.632 584.07 496.103 584.599 495.966C587.128 495.299 589.636 494.613 592.125 493.888C592.655 493.731 593.184 494.045 593.341 494.554C593.497 495.084 593.184 495.613 592.674 495.77C590.146 496.495 587.618 497.2 585.089 497.847C585.011 497.867 584.933 497.886 584.835 497.886ZM603.61 492.3C603.199 492.3 602.826 492.046 602.689 491.634C602.513 491.125 602.787 490.556 603.316 490.399C605.786 489.576 608.236 488.714 610.686 487.832C611.195 487.655 611.764 487.91 611.94 488.42C612.116 488.929 611.862 489.498 611.352 489.674C608.883 490.576 606.413 491.438 603.924 492.261C603.826 492.3 603.708 492.32 603.61 492.32V492.3ZM621.975 485.46C621.583 485.46 621.23 485.225 621.073 484.853C620.877 484.343 621.112 483.775 621.602 483.579C624.013 482.599 626.404 481.56 628.795 480.502C629.285 480.286 629.873 480.502 630.089 480.992C630.304 481.482 630.089 482.07 629.599 482.285C627.208 483.344 624.797 484.382 622.367 485.382C622.249 485.441 622.112 485.46 621.994 485.46H621.975ZM639.83 477.386C639.477 477.386 639.124 477.19 638.948 476.837C638.712 476.347 638.908 475.759 639.398 475.524C641.731 474.367 644.043 473.191 646.356 471.957C646.846 471.702 647.434 471.878 647.689 472.368C647.944 472.839 647.767 473.446 647.277 473.701C644.965 474.936 642.632 476.131 640.28 477.288C640.143 477.366 639.986 477.386 639.849 477.386H639.83ZM657.077 468.096C656.744 468.096 656.41 467.919 656.234 467.606C655.96 467.135 656.116 466.547 656.587 466.273C658.841 464.96 661.055 463.607 663.27 462.235C663.74 461.961 664.328 462.098 664.622 462.549C664.916 463 664.76 463.607 664.309 463.901C662.075 465.293 659.84 466.645 657.567 467.958C657.41 468.056 657.234 468.096 657.077 468.096ZM673.638 457.61C673.324 457.61 673.011 457.453 672.834 457.179C672.521 456.728 672.638 456.121 673.089 455.807C675.226 454.337 677.362 452.847 679.459 451.299C679.89 450.986 680.517 451.064 680.831 451.515C681.145 451.946 681.066 452.573 680.615 452.887C678.499 454.435 676.362 455.964 674.187 457.434C674.01 457.551 673.834 457.61 673.638 457.61ZM689.298 445.851C689.023 445.851 688.729 445.733 688.553 445.498C688.2 445.086 688.259 444.459 688.671 444.126C690.709 442.421 692.669 440.696 694.511 438.991C694.903 438.619 695.53 438.638 695.903 439.05C696.275 439.442 696.255 440.069 695.844 440.441C693.982 442.166 691.983 443.93 689.925 445.655C689.748 445.811 689.513 445.89 689.298 445.89V445.851ZM703.429 432.288C703.194 432.288 702.958 432.21 702.782 432.033C702.37 431.68 702.351 431.053 702.703 430.642C703.86 429.329 704.997 427.996 706.094 426.643C706.623 425.997 707.153 425.33 707.662 424.664C707.995 424.233 708.603 424.154 709.034 424.488C709.465 424.821 709.544 425.428 709.21 425.86C708.681 426.545 708.152 427.212 707.623 427.878C706.506 429.27 705.349 430.622 704.173 431.955C703.977 432.17 703.703 432.288 703.448 432.288H703.429ZM715.09 416.57C714.914 416.57 714.737 416.53 714.581 416.432C714.11 416.158 713.973 415.55 714.247 415.08C715.58 412.905 716.874 410.631 718.089 408.318C718.344 407.848 718.932 407.652 719.422 407.907C719.892 408.162 720.088 408.75 719.833 409.24C718.598 411.591 717.285 413.904 715.933 416.119C715.756 416.413 715.423 416.589 715.09 416.589V416.57ZM723.91 399.107C723.792 399.107 723.655 399.087 723.537 399.028C723.047 398.813 722.793 398.244 723.008 397.754C723.969 395.403 724.909 392.953 725.752 390.483C725.928 389.974 726.477 389.699 727.006 389.876C727.516 390.052 727.79 390.62 727.614 391.13C726.732 393.639 725.811 396.128 724.831 398.519C724.674 398.891 724.302 399.126 723.929 399.126L723.91 399.107ZM730.103 380.527C730.103 380.527 729.946 380.527 729.848 380.488C729.319 380.35 729.006 379.821 729.143 379.292C729.789 376.842 730.397 374.275 730.965 371.707C731.083 371.178 731.612 370.845 732.122 370.962C732.651 371.08 732.984 371.59 732.867 372.119C732.298 374.725 731.691 377.293 731.024 379.782C730.907 380.213 730.515 380.507 730.083 380.507L730.103 380.527ZM734.082 361.339C734.082 361.339 733.984 361.339 733.925 361.339C733.396 361.261 733.023 360.751 733.102 360.222C733.494 357.694 733.866 355.087 734.18 352.48C734.238 351.951 734.748 351.559 735.277 351.618C735.806 351.677 736.198 352.167 736.14 352.716C735.826 355.342 735.454 357.949 735.062 360.516C734.983 361.006 734.572 361.339 734.101 361.339H734.082ZM736.316 341.858C736.316 341.858 736.257 341.858 736.238 341.858C735.689 341.819 735.297 341.348 735.336 340.799C735.532 338.212 735.689 335.606 735.826 332.999C735.846 332.45 736.257 332.039 736.845 332.078C737.394 332.097 737.806 332.568 737.766 333.097C737.629 335.723 737.472 338.33 737.276 340.937C737.237 341.446 736.806 341.838 736.296 341.838L736.316 341.858ZM557.396 324.963C556.886 324.963 556.455 324.571 556.416 324.062C556.377 323.513 556.769 323.043 557.317 323.003C559.728 322.807 562.217 322.435 564.941 321.867C565.451 321.749 566 322.102 566.098 322.631C566.215 323.16 565.863 323.689 565.333 323.787C562.531 324.375 559.963 324.748 557.455 324.944C557.435 324.944 557.396 324.944 557.376 324.944L557.396 324.963ZM545.695 324.297C545.695 324.297 545.558 324.297 545.48 324.277C545.068 324.179 544.676 324.101 544.264 323.983C542.069 323.415 539.913 322.592 537.875 321.534C537.385 321.279 537.209 320.691 537.463 320.22C537.718 319.73 538.306 319.554 538.777 319.789C540.678 320.769 542.696 321.553 544.754 322.082C545.127 322.18 545.519 322.278 545.891 322.357C546.42 322.474 546.754 323.003 546.636 323.533C546.538 323.983 546.126 324.297 545.676 324.297H545.695ZM737.198 322.298C736.649 322.298 736.218 321.847 736.238 321.298C736.296 318.692 736.316 316.085 736.316 313.478C736.316 312.93 736.747 312.498 737.296 312.498C737.845 312.498 738.276 312.93 738.276 313.478C738.276 316.085 738.256 318.711 738.197 321.338C738.197 321.867 737.747 322.298 737.218 322.298H737.198ZM576.466 320.73C576.054 320.73 575.662 320.475 575.545 320.064C575.368 319.554 575.662 319.005 576.172 318.829C578.543 318.045 580.993 317.143 583.482 316.163C583.992 315.967 584.56 316.203 584.756 316.712C584.952 317.222 584.717 317.79 584.207 317.986C581.679 318.986 579.19 319.907 576.799 320.691C576.701 320.73 576.583 320.75 576.485 320.75L576.466 320.73ZM529.075 314.497C528.82 314.497 528.546 314.399 528.35 314.184C526.586 312.263 524.959 310.088 523.548 307.755C523.274 307.285 523.411 306.697 523.881 306.403C524.352 306.129 524.94 306.266 525.234 306.736C526.586 308.97 528.115 311.028 529.8 312.851C530.173 313.243 530.133 313.87 529.741 314.243C529.545 314.419 529.31 314.497 529.075 314.497ZM594.614 313.341C594.242 313.341 593.889 313.126 593.733 312.773C593.497 312.283 593.713 311.695 594.203 311.46C596.555 310.342 598.887 309.206 601.219 308.03C601.709 307.775 602.297 307.971 602.533 308.461C602.768 308.951 602.591 309.539 602.101 309.774C599.769 310.95 597.398 312.106 595.046 313.223C594.908 313.282 594.771 313.321 594.634 313.321L594.614 313.341ZM612.097 304.482C611.744 304.482 611.411 304.286 611.235 303.953C610.98 303.483 611.156 302.875 611.646 302.62C613.939 301.405 616.252 300.17 618.545 298.916C619.015 298.661 619.623 298.838 619.878 299.308C620.133 299.779 619.956 300.386 619.486 300.641C617.193 301.895 614.88 303.13 612.567 304.345C612.43 304.423 612.273 304.463 612.117 304.463L612.097 304.482ZM737.159 302.699C736.63 302.699 736.198 302.268 736.179 301.738C736.12 299.132 736.061 296.525 735.963 293.918C735.963 293.37 736.375 292.919 736.904 292.899C737.433 292.86 737.903 293.311 737.923 293.84C738.021 296.466 738.08 299.073 738.139 301.699C738.139 302.248 737.727 302.679 737.178 302.699H737.159ZM519.726 297.485C519.295 297.485 518.903 297.211 518.786 296.78C518.041 294.232 517.512 291.586 517.198 288.94C517.139 288.411 517.512 287.921 518.06 287.843C518.59 287.764 519.08 288.156 519.138 288.705C519.432 291.233 519.962 293.781 520.667 296.231C520.824 296.76 520.51 297.289 520.001 297.446C519.903 297.466 519.824 297.485 519.726 297.485ZM629.285 295.055C628.952 295.055 628.619 294.879 628.443 294.565C628.168 294.095 628.345 293.487 628.795 293.232C631.049 291.939 633.303 290.606 635.537 289.273C635.988 288.999 636.596 289.136 636.89 289.607C637.164 290.077 637.027 290.665 636.557 290.959C634.322 292.311 632.049 293.644 629.775 294.957C629.618 295.036 629.462 295.094 629.285 295.094V295.055ZM646.003 284.824C645.69 284.824 645.376 284.668 645.18 284.374C644.886 283.923 645.004 283.315 645.455 283.021C647.63 281.591 649.786 280.14 651.922 278.651C652.373 278.337 652.981 278.455 653.294 278.886C653.608 279.337 653.49 279.944 653.059 280.258C650.903 281.767 648.747 283.237 646.533 284.668C646.376 284.785 646.18 284.824 646.003 284.824ZM736.355 283.119C735.846 283.119 735.414 282.727 735.375 282.198C735.199 279.591 734.983 277.004 734.709 274.417C734.65 273.888 735.042 273.398 735.591 273.339C736.081 273.3 736.61 273.673 736.669 274.221C736.924 276.828 737.159 279.454 737.335 282.061C737.374 282.61 736.963 283.06 736.434 283.1C736.414 283.1 736.394 283.1 736.355 283.1V283.119ZM518.296 278.082C518.296 278.082 518.198 278.082 518.158 278.082C517.629 278.004 517.257 277.514 517.335 276.965C517.708 274.358 518.276 271.752 519.021 269.184C519.178 268.675 519.707 268.361 520.236 268.518C520.745 268.675 521.059 269.204 520.902 269.733C520.177 272.222 519.628 274.75 519.276 277.259C519.197 277.749 518.786 278.102 518.315 278.102L518.296 278.082ZM661.957 273.457C661.663 273.457 661.369 273.32 661.193 273.085C660.859 272.653 660.938 272.046 661.369 271.713C663.427 270.105 665.465 268.44 667.425 266.793C667.837 266.44 668.464 266.499 668.817 266.911C669.169 267.322 669.111 267.95 668.699 268.302C666.72 269.968 664.662 271.634 662.584 273.261C662.408 273.398 662.192 273.477 661.977 273.477L661.957 273.457ZM734.18 263.657C733.709 263.657 733.298 263.324 733.219 262.834C732.808 260.228 732.318 257.66 731.808 255.171C731.691 254.642 732.043 254.113 732.573 254.015C733.102 253.897 733.611 254.25 733.729 254.779C734.258 257.288 734.748 259.914 735.16 262.54C735.238 263.069 734.885 263.579 734.356 263.657C734.297 263.657 734.258 263.657 734.199 263.657H734.18ZM676.754 260.62C676.499 260.62 676.245 260.522 676.049 260.326C675.676 259.934 675.676 259.326 676.068 258.934C677.95 257.111 679.792 255.23 681.517 253.368C681.889 252.976 682.497 252.956 682.908 253.329C683.3 253.701 683.32 254.309 682.967 254.72C681.203 256.602 679.341 258.503 677.44 260.345C677.244 260.522 677.009 260.62 676.754 260.62ZM524.254 259.502C524.097 259.502 523.96 259.463 523.823 259.404C523.333 259.169 523.137 258.581 523.391 258.091C524.528 255.798 525.861 253.485 527.292 251.192C527.586 250.742 528.193 250.604 528.644 250.879C529.095 251.173 529.232 251.78 528.957 252.231C527.546 254.465 526.272 256.739 525.136 258.973C524.959 259.326 524.626 259.522 524.254 259.522V259.502ZM689.905 246.097C689.69 246.097 689.474 246.038 689.298 245.881C688.867 245.548 688.808 244.94 689.141 244.509L689.925 243.509C691.238 241.824 692.532 240.06 693.766 238.257C694.08 237.806 694.687 237.689 695.138 238.002C695.589 238.316 695.707 238.923 695.393 239.354C694.139 241.177 692.826 242.98 691.493 244.705L690.709 245.724C690.513 245.979 690.219 246.097 689.945 246.097H689.905ZM729.868 244.529C729.456 244.529 729.064 244.254 728.927 243.823C728.516 242.471 728.104 241.138 727.653 239.805C727.281 238.688 726.869 237.571 726.458 236.454C726.262 235.944 726.516 235.376 727.026 235.199C727.536 235.003 728.104 235.258 728.28 235.768C728.712 236.905 729.104 238.041 729.495 239.178C729.946 240.53 730.377 241.883 730.789 243.255C730.946 243.764 730.652 244.313 730.123 244.47C730.025 244.489 729.927 244.509 729.848 244.509L729.868 244.529ZM535.014 243.157C534.798 243.157 534.582 243.078 534.386 242.941C533.975 242.588 533.896 241.981 534.249 241.569C535.856 239.59 537.62 237.591 539.463 235.631C539.835 235.239 540.462 235.219 540.854 235.591C541.246 235.964 541.266 236.571 540.893 236.983C539.09 238.923 537.366 240.903 535.778 242.824C535.582 243.059 535.308 243.176 535.014 243.176V243.157ZM700.704 229.771C700.548 229.771 700.391 229.731 700.234 229.653C699.764 229.398 699.587 228.791 699.842 228.32C701.077 226.047 702.253 223.714 703.331 221.382C703.566 220.892 704.154 220.677 704.624 220.912C705.114 221.147 705.33 221.715 705.114 222.205C704.017 224.596 702.821 226.968 701.567 229.261C701.39 229.594 701.057 229.771 700.704 229.771ZM548.537 229.006C548.282 229.006 548.008 228.908 547.812 228.693C547.439 228.301 547.479 227.673 547.871 227.301C549.791 225.537 551.79 223.773 553.79 222.088C554.201 221.735 554.828 221.794 555.161 222.205C555.514 222.617 555.455 223.244 555.044 223.577C553.064 225.243 551.104 226.987 549.184 228.732C548.988 228.908 548.753 228.987 548.517 228.987L548.537 229.006ZM722.636 226.341C722.283 226.341 721.93 226.145 721.754 225.812C720.578 223.479 719.304 221.206 717.971 219.03C717.697 218.56 717.834 217.972 718.304 217.678C718.775 217.403 719.363 217.541 719.657 218.011C721.009 220.226 722.303 222.558 723.498 224.93C723.733 225.42 723.557 226.008 723.067 226.243C722.93 226.321 722.773 226.341 722.616 226.341H722.636ZM563.628 216.522C563.334 216.522 563.04 216.384 562.844 216.13C562.511 215.698 562.609 215.071 563.04 214.758C565.137 213.209 567.293 211.661 569.469 210.191C569.92 209.897 570.527 209.995 570.821 210.446C571.135 210.897 571.017 211.504 570.566 211.798C568.41 213.268 566.274 214.777 564.216 216.326C564.04 216.463 563.844 216.522 563.628 216.522ZM708.564 211.857C708.466 211.857 708.348 211.857 708.25 211.798C707.74 211.622 707.466 211.073 707.642 210.563C708.093 209.27 708.505 207.937 708.897 206.624C708.015 205.624 707.113 204.644 706.192 203.704C705.82 203.312 705.82 202.704 706.192 202.312C706.584 201.94 707.192 201.94 707.584 202.312C708.23 202.979 708.877 203.665 709.524 204.37C709.642 203.939 709.759 203.527 709.857 203.096C709.994 202.567 710.524 202.253 711.053 202.391C711.582 202.528 711.896 203.057 711.758 203.586C711.543 204.429 711.308 205.272 711.072 206.114C711.68 206.82 712.268 207.526 712.856 208.251C713.189 208.682 713.13 209.289 712.699 209.623C712.268 209.956 711.66 209.897 711.327 209.466C711.033 209.093 710.72 208.721 710.406 208.349C710.112 209.289 709.818 210.23 709.504 211.151C709.367 211.563 708.975 211.818 708.583 211.818L708.564 211.857ZM579.935 205.664C579.602 205.664 579.268 205.487 579.092 205.193C578.818 204.723 578.974 204.135 579.425 203.841C581.659 202.508 583.972 201.195 586.285 199.96C586.755 199.706 587.363 199.882 587.618 200.352C587.872 200.823 587.696 201.43 587.226 201.685C584.933 202.92 582.659 204.213 580.444 205.526C580.288 205.624 580.111 205.664 579.935 205.664ZM597.26 196.53C596.888 196.53 596.535 196.315 596.378 195.962C596.143 195.472 596.378 194.884 596.849 194.669C599.22 193.571 601.651 192.513 604.061 191.513C604.571 191.317 605.139 191.552 605.335 192.042C605.551 192.532 605.296 193.12 604.806 193.316C602.415 194.296 600.004 195.355 597.652 196.432C597.515 196.491 597.378 196.53 597.241 196.53H597.26ZM698.039 196.256C697.843 196.256 697.627 196.197 697.451 196.06C695.373 194.512 693.198 193.101 691.003 191.827C690.533 191.552 690.376 190.964 690.65 190.494C690.924 190.024 691.512 189.867 691.983 190.141C694.256 191.454 696.491 192.924 698.627 194.512C699.058 194.825 699.156 195.453 698.823 195.884C698.627 196.138 698.333 196.276 698.039 196.276V196.256ZM713.071 192.807C713.071 192.807 712.993 192.807 712.934 192.807C712.405 192.728 712.033 192.238 712.091 191.709C712.444 189.122 712.679 186.535 712.817 183.987C712.836 183.438 713.326 183.027 713.836 183.046C714.385 183.066 714.796 183.536 714.757 184.065C714.62 186.672 714.385 189.318 714.032 191.944C713.973 192.434 713.542 192.787 713.071 192.787V192.807ZM466.985 191.807C466.77 191.807 466.574 191.748 466.397 191.611C465.966 191.278 465.888 190.67 466.221 190.239C467.769 188.201 469.474 186.143 471.258 184.144C471.611 183.732 472.238 183.693 472.649 184.065C473.061 184.418 473.1 185.045 472.728 185.457C470.983 187.436 469.317 189.455 467.789 191.454C467.593 191.709 467.299 191.846 467.005 191.846L466.985 191.807ZM615.448 189.259C615.037 189.259 614.664 189.004 614.527 188.593C614.351 188.083 614.625 187.534 615.154 187.358C617.683 186.515 620.211 185.751 622.7 185.065C623.229 184.928 623.758 185.222 623.915 185.751C624.052 186.28 623.758 186.809 623.229 186.946C620.76 187.613 618.271 188.377 615.782 189.22C615.684 189.259 615.566 189.279 615.468 189.279L615.448 189.259ZM680.831 187.005C680.713 187.005 680.615 187.005 680.498 186.946C678.126 186.084 675.637 185.339 673.089 184.732C672.56 184.595 672.247 184.065 672.364 183.556C672.482 183.027 672.991 182.713 673.54 182.831C676.147 183.458 678.695 184.222 681.144 185.104C681.654 185.281 681.909 185.849 681.732 186.359C681.595 186.751 681.203 187.005 680.811 187.005H680.831ZM634.401 184.359C633.93 184.359 633.519 184.026 633.44 183.556C633.342 183.027 633.695 182.517 634.224 182.419C636.851 181.949 639.477 181.557 642.044 181.263C642.573 181.184 643.063 181.576 643.122 182.125C643.181 182.654 642.789 183.144 642.26 183.203C639.732 183.497 637.145 183.869 634.577 184.34C634.518 184.34 634.459 184.34 634.401 184.34V184.359ZM661.722 182.889C661.722 182.889 661.663 182.889 661.643 182.889C659.135 182.674 656.528 182.556 653.902 182.556C653.353 182.556 652.922 182.125 652.922 181.576C652.922 181.028 653.353 180.596 653.902 180.596C656.587 180.596 659.252 180.714 661.82 180.949C662.369 180.988 662.761 181.478 662.702 182.008C662.663 182.517 662.231 182.909 661.722 182.909V182.889ZM480.136 177.323C479.881 177.323 479.627 177.225 479.431 177.01C479.058 176.618 479.078 175.991 479.47 175.618C481.293 173.874 483.272 172.11 485.33 170.326C485.742 169.974 486.349 170.013 486.721 170.424C487.074 170.836 487.035 171.444 486.623 171.816C484.585 173.56 482.645 175.324 480.842 177.029C480.646 177.206 480.411 177.304 480.175 177.304L480.136 177.323ZM713.542 173.247C713.032 173.247 712.621 172.855 712.562 172.345C712.327 169.758 711.974 167.191 711.484 164.682C711.386 164.153 711.739 163.643 712.268 163.526C712.797 163.428 713.307 163.761 713.424 164.31C713.914 166.877 714.287 169.523 714.522 172.169C714.561 172.698 714.169 173.188 713.64 173.227C713.601 173.227 713.581 173.227 713.542 173.227V173.247ZM495.051 164.623C494.757 164.623 494.463 164.486 494.287 164.251C493.953 163.82 494.032 163.212 494.463 162.879C496.521 161.272 498.618 159.684 500.715 158.116C501.146 157.803 501.754 157.881 502.087 158.312C502.401 158.743 502.322 159.351 501.891 159.684C499.794 161.232 497.717 162.82 495.659 164.408C495.482 164.545 495.267 164.623 495.051 164.623ZM709.328 154.157C708.936 154.157 708.544 153.902 708.407 153.51C707.74 151.668 706.976 149.826 706.153 148.042C705.898 147.494 705.643 146.945 705.369 146.416C705.134 145.926 705.33 145.338 705.8 145.102C706.29 144.867 706.878 145.063 707.113 145.553C707.388 146.102 707.662 146.67 707.917 147.239C708.76 149.061 709.544 150.963 710.249 152.864C710.426 153.373 710.171 153.942 709.661 154.118C709.544 154.157 709.446 154.177 709.328 154.177V154.157ZM510.809 152.942C510.495 152.942 510.201 152.805 510.005 152.53C509.692 152.099 509.79 151.472 510.221 151.159L516.59 146.572C517.022 146.259 517.649 146.357 517.962 146.808C518.276 147.239 518.178 147.866 517.727 148.179L511.358 152.766C511.181 152.883 510.985 152.942 510.789 152.942H510.809ZM526.802 141.614C526.488 141.614 526.174 141.457 525.998 141.183C525.684 140.732 525.802 140.124 526.253 139.83C528.428 138.36 530.604 136.91 532.819 135.499C533.269 135.205 533.877 135.342 534.171 135.793C534.465 136.244 534.328 136.851 533.877 137.145C531.682 138.537 529.506 139.987 527.35 141.457C527.174 141.575 526.998 141.633 526.802 141.633V141.614ZM699.94 137.067C699.666 137.067 699.372 136.949 699.176 136.714C697.49 134.676 695.687 132.853 693.786 131.324C693.374 130.991 693.296 130.364 693.649 129.952C693.982 129.521 694.609 129.462 695.021 129.796C697.02 131.422 698.94 133.323 700.704 135.46C701.038 135.871 700.979 136.498 700.567 136.832C700.391 136.988 700.175 137.047 699.94 137.047V137.067ZM543.441 131.285C543.088 131.285 542.755 131.109 542.579 130.775C542.324 130.305 542.481 129.698 542.971 129.443C545.342 128.13 547.694 126.914 549.987 125.817C550.477 125.582 551.065 125.797 551.3 126.268C551.536 126.758 551.34 127.346 550.85 127.581C548.596 128.659 546.264 129.874 543.931 131.148C543.774 131.226 543.618 131.265 543.461 131.265L543.441 131.285ZM684.261 125.66C684.143 125.66 684.006 125.641 683.888 125.582C681.732 124.68 679.341 123.837 676.598 123.014C676.088 122.857 675.794 122.309 675.951 121.799C676.108 121.29 676.656 120.996 677.166 121.152C679.988 121.995 682.418 122.857 684.653 123.798C685.143 124.014 685.378 124.582 685.182 125.072C685.025 125.445 684.653 125.68 684.28 125.68L684.261 125.66ZM561.218 123.093C560.826 123.093 560.453 122.857 560.296 122.446C560.1 121.936 560.375 121.368 560.865 121.192C563.295 120.29 565.823 119.428 568.332 118.644C568.861 118.487 569.39 118.781 569.547 119.29C569.704 119.8 569.41 120.349 568.9 120.506C566.411 121.27 563.922 122.113 561.531 123.014C561.414 123.053 561.296 123.073 561.198 123.073L561.218 123.093ZM665.504 120.055C665.504 120.055 665.348 120.055 665.289 120.035C662.761 119.447 660.213 118.879 657.665 118.369C657.136 118.252 656.783 117.742 656.9 117.213C656.998 116.684 657.528 116.351 658.057 116.449C660.624 116.978 663.192 117.526 665.74 118.134C666.269 118.252 666.602 118.781 666.465 119.31C666.367 119.761 665.955 120.074 665.504 120.074V120.055ZM580.013 117.585C579.562 117.585 579.151 117.272 579.053 116.821C578.935 116.292 579.268 115.763 579.798 115.645C582.345 115.096 584.952 114.587 587.539 114.155C588.068 114.057 588.578 114.43 588.656 114.959C588.735 115.488 588.382 115.998 587.853 116.076C585.285 116.488 582.718 116.997 580.209 117.546C580.131 117.546 580.072 117.566 579.994 117.566L580.013 117.585ZM646.278 116.331C646.278 116.331 646.18 116.331 646.121 116.331C643.534 115.939 640.927 115.586 638.379 115.292C637.85 115.233 637.458 114.743 637.517 114.214C637.576 113.685 638.085 113.273 638.595 113.352C641.162 113.646 643.789 113.999 646.395 114.391C646.924 114.469 647.297 114.979 647.218 115.508C647.14 115.998 646.728 116.351 646.258 116.351L646.278 116.331ZM599.377 114.626C598.868 114.626 598.456 114.234 598.397 113.724C598.358 113.195 598.75 112.705 599.279 112.666C601.866 112.431 604.512 112.254 607.138 112.137C607.726 112.078 608.138 112.529 608.157 113.077C608.177 113.626 607.766 114.077 607.217 114.097C604.61 114.214 601.984 114.391 599.436 114.626C599.397 114.626 599.377 114.626 599.338 114.626H599.377ZM626.796 114.273C626.796 114.273 626.757 114.273 626.737 114.273C624.131 114.116 621.504 114.018 618.937 113.959C618.388 113.959 617.957 113.509 617.977 112.96C617.977 112.411 618.369 112.019 618.976 112C621.563 112.058 624.229 112.156 626.855 112.313C627.404 112.352 627.815 112.803 627.776 113.352C627.737 113.881 627.306 114.273 626.796 114.273Z" fill="#C6C6C6"/>
<g class="stylus">
    <path opacity="0.2" d="M165.733 61.9469C157.338 48.172 147.582 34.4511 133.462 26.6507C119.341 18.8503 99.8075 18.7206 88.6255 30.3456C78.7291 40.6309 78.0269 57.1608 82.9426 70.5576C87.8692 83.9544 97.4198 95.0392 106.495 106.059C153.081 162.639 205.221 239.411 234.543 306.579C229.022 293.917 236.25 251.966 226.483 220.883C221.978 206.557 218.078 195.947 214.426 181.405C203.892 139.465 188.28 98.961 165.722 61.9685L165.733 61.9469Z" fill="#4A4A49"/>
    <path d="M150.553 58.1549C142.159 44.38 132.403 30.6591 118.282 22.8587C104.161 15.0583 84.628 14.9286 73.446 26.5536C63.5497 36.8389 62.8474 53.3688 67.7632 66.7656C72.6789 80.1625 82.2404 91.2472 91.3156 102.256C137.902 158.836 190.041 235.609 219.363 302.776C213.842 290.114 221.07 248.163 211.304 217.08C206.798 202.754 202.898 192.145 199.246 177.603C188.713 135.662 173.101 95.1582 150.542 58.1657L150.553 58.1549Z" fill="white"/>
    <path fill-rule="evenodd" clip-rule="evenodd" d="M92.766 40.0809C93.4283 39.5573 94.3897 39.6697 94.9133 40.332C147.433 106.761 201.071 202.135 220.644 296.926C220.815 297.753 220.283 298.561 219.456 298.732C218.629 298.903 217.821 298.371 217.65 297.544C198.2 203.353 144.836 108.407 92.5149 42.2283C91.9912 41.566 92.1036 40.6046 92.766 40.0809Z" fill="#E8E8E8"/>
    <path d="M78.5021 44.4654C78.7722 44.3358 78.9991 44.1306 79.1936 43.9037C79.8958 43.0718 80.0795 41.7861 79.5069 40.8677C78.5021 39.258 76.1469 39.755 75.5419 41.4512C74.9801 43.0394 76.7951 45.2865 78.5021 44.4654Z" fill="#713EE6"/>
    <path d="M100.261 76.8444C100.531 76.7147 100.758 76.5094 100.953 76.2825C101.655 75.4506 101.839 74.165 101.266 73.2467C100.261 71.6369 97.906 72.1338 97.301 73.83C96.7392 75.4182 98.5543 77.6655 100.261 76.8444Z" fill="#713EE6"/>
    <path d="M90.7107 28.7134C90.9808 28.5838 91.2077 28.3786 91.4021 28.1517C92.1044 27.3198 92.2881 26.0341 91.7155 25.1158C90.7107 23.506 88.3554 24.003 87.7504 25.6992C87.1886 27.2874 89.0037 29.5345 90.7107 28.7134Z" fill="#713EE6"/>
    <path d="M81.0736 34.2462C81.2573 34.1597 81.4194 34.0192 81.5598 33.8572C82.0568 33.2738 82.1756 32.3771 81.7759 31.7396C81.0736 30.616 79.4315 30.9618 79.0101 32.1502C78.6212 33.263 79.8852 34.8295 81.0736 34.2569V34.2462Z" fill="#713EE6"/>
    <path d="M88.0635 75.1912C88.2364 75.1048 88.3876 74.9751 88.5065 74.8347C88.9602 74.3053 89.0683 73.4842 88.701 72.9008C88.0635 71.8744 86.5618 72.1877 86.1728 73.2789C85.8163 74.2945 86.9723 75.7314 88.0635 75.202V75.1912Z" fill="#713EE6"/>
    <path d="M88.7011 59.1471C88.9712 59.0175 89.1981 58.8122 89.3926 58.5853C90.0948 57.7534 90.2785 56.4677 89.7059 55.5494C88.7011 53.9396 86.3459 54.4366 85.7408 56.1328C85.179 57.721 86.9941 59.9682 88.7011 59.1471Z" fill="#713EE6"/>
    <path d="M93.4871 90.4684C93.7572 90.3387 93.9841 90.1334 94.1786 89.9065C94.8808 89.0746 95.0645 87.789 94.4919 86.8707C93.4871 85.2609 91.1319 85.7579 90.5269 87.4541C89.9651 89.0423 91.7801 91.2895 93.4871 90.4684Z" fill="#713EE6"/>
    <path d="M69.2757 53.3895C69.4161 53.5191 69.5782 53.6056 69.7511 53.6704C70.3885 53.8973 71.1664 53.7028 71.5769 53.1734C72.2792 52.2335 71.4689 50.991 70.3561 51.0234C69.3081 51.0559 68.4222 52.6116 69.2757 53.4003V53.3895Z" fill="#713EE6"/>
    <path d="M79.7122 53.119C79.8527 53.2486 80.0147 53.3351 80.1876 53.3999C80.825 53.6268 81.6029 53.4323 82.0134 52.9029C82.7157 51.963 81.9054 50.7205 80.7926 50.7529C79.7446 50.7854 78.8587 52.3411 79.7122 53.1298V53.119Z" fill="#713EE6"/>
    <path d="M96.4907 61.5038C96.6311 61.6334 96.7932 61.7198 96.966 61.7847C97.6035 62.0116 98.3813 61.8171 98.7919 61.2877C99.4941 60.3477 98.6838 59.1053 97.571 59.1377C96.5231 59.1701 95.6372 60.7259 96.4907 61.5146V61.5038Z" fill="#713EE6"/>
    <path d="M77.0869 67.5642C77.2274 67.6938 77.3895 67.7803 77.5623 67.8451C78.1997 68.072 78.9776 67.8775 79.3882 67.3481C80.0904 66.4082 79.2801 65.1657 78.1673 65.1981C77.1194 65.2305 76.2334 66.7863 77.0869 67.575V67.5642Z" fill="#713EE6"/>
    <path d="M87.6207 35.3037C87.7071 35.2605 87.7935 35.1957 87.8583 35.1201C88.096 34.8392 88.1608 34.407 87.9664 34.0937C87.6315 33.5535 86.832 33.7155 86.6267 34.2882C86.4322 34.8283 87.048 35.5846 87.6315 35.3037H87.6207Z" fill="#713EE6"/>
    <path d="M80.8899 78.3789C80.9764 78.3357 81.0628 78.2709 81.1276 78.1953C81.3653 77.9144 81.4301 77.4822 81.2357 77.1689C80.9008 76.6287 80.1013 76.7907 79.896 77.3634C79.7015 77.9035 80.3174 78.6598 80.9008 78.3789H80.8899Z" fill="#713EE6"/>
    <path d="M70.4533 40.7471C70.5397 40.7039 70.6262 40.6391 70.691 40.5634C70.9287 40.2825 70.9935 39.8504 70.799 39.5371C70.4641 38.9969 69.6646 39.1589 69.4593 39.7315C69.2649 40.2717 69.8807 41.028 70.4641 40.7471H70.4533Z" fill="#713EE6"/>
    <path d="M92.9902 66.3852C92.9902 66.3852 93.0874 66.3203 93.1198 66.2771C93.2495 66.115 93.2927 65.8774 93.1739 65.7045C92.9794 65.402 92.5364 65.4884 92.4284 65.8125C92.3203 66.115 92.6661 66.5364 92.9902 66.3852Z" fill="#713EE6"/>
    <path d="M71.7498 62.141C71.7498 62.141 71.8471 62.0762 71.8795 62.0329C72.0091 61.8709 72.0523 61.6332 71.9335 61.4604C71.739 61.1579 71.2961 61.2443 71.188 61.5684C71.08 61.8709 71.4257 62.2922 71.7498 62.141Z" fill="#713EE6"/>
</g>
<path d="M540.502 210.111C579.182 171.43 579.182 108.717 540.502 70.0369C501.821 31.3565 439.108 31.3565 400.428 70.0369C361.747 108.717 361.747 171.43 400.428 210.111C439.108 248.791 501.821 248.791 540.502 210.111Z" fill="#5E34BD"/>
<path d="M522.682 211.659C560.638 173.703 560.638 112.164 522.682 74.2075C484.725 36.2514 423.186 36.2514 385.23 74.2075C347.274 112.164 347.274 173.703 385.23 211.659C423.186 249.615 484.725 249.615 522.682 211.659Z" fill="#F6F6F6"/>
<path d="M479.273 230.812C519.913 220.055 547.534 183.717 548.561 143.152L521.966 139.677C526.874 176.386 509.466 211.771 479.273 230.799V230.812Z" fill="#F7F9FF"/>
<path d="M497.077 87.6507L511.172 66.0757C490.141 50.3735 462.644 43.5857 435.023 49.7677C424.303 52.1663 414.449 56.3206 405.659 61.8596C406.833 61.5505 408.02 61.2538 409.232 60.9818C442.33 53.5758 475.255 64.7899 497.077 87.6631V87.6507Z" fill="#F7F9FF"/>
<path d="M511.172 66.0747L497.077 87.6498C508.378 99.4944 516.699 114.455 520.532 131.591C521.137 134.286 521.607 136.982 521.966 139.677L548.561 143.151C548.746 135.659 548.029 128.03 546.323 120.389C541.266 97.7758 528.383 78.9456 511.172 66.0871V66.0747Z" fill="#F7F9FF"/>
<path d="M497.077 87.6504C475.255 64.7772 442.33 53.5631 409.232 60.9691C408.032 61.2411 406.846 61.5379 405.659 61.847C373.253 82.2721 355.572 121.54 364.4 161.067C375.639 211.302 425.466 242.916 475.7 231.69C476.899 231.418 478.086 231.121 479.273 230.812C509.466 211.784 526.887 176.399 521.966 139.69C521.607 136.995 521.125 134.299 520.532 131.604C516.699 114.468 508.378 99.5074 497.077 87.6628V87.6504Z" fill="#EEF2FF"/>
<path d="M538.768 92.1512L519.616 100.559C522.621 104.762 525.242 109.337 527.393 114.258C527.641 114.827 527.888 115.395 528.123 115.964L545.816 108.187C548.672 106.926 549.97 103.588 548.721 100.732L546.224 95.0443C544.962 92.1883 541.624 90.8901 538.768 92.1388V92.1512Z" fill="#F6F6F6"/>
<path d="M519.616 100.571L509.429 105.047L516.476 121.095L528.123 115.977C527.888 115.408 527.653 114.839 527.393 114.27C525.23 109.35 522.621 104.775 519.616 100.571Z" fill="#F0ECE8"/>
<path d="M475.011 202.747C509.264 191.895 528.234 155.33 517.381 121.077C506.528 86.824 469.963 67.8543 435.71 78.7068C401.458 89.5593 382.488 126.124 393.34 160.377C404.193 194.63 440.758 213.6 475.011 202.747Z" fill="#F6F6F6"/>
<path d="M400.849 146.381C407.538 176.289 437.211 195.119 467.12 188.43C497.028 181.742 515.858 152.068 509.169 122.16C505.151 104.17 492.812 90.1992 477.11 83.362C466.267 79.2324 454.138 78.132 441.971 80.8521C436.803 82.0143 431.932 83.7823 427.419 86.082C406.846 97.8524 395.397 122.036 400.837 146.368L400.849 146.381Z" fill="#DEC8B2"/>
<path d="M477.122 83.3745C492.824 90.2118 505.151 104.183 509.181 122.172C515.87 152.081 497.04 181.754 467.132 188.443C437.224 195.132 407.55 176.302 400.861 146.393C395.421 122.049 406.87 97.8774 427.444 86.1069C403.112 98.5326 389.276 126.228 395.52 154.121C402.914 187.182 435.703 207.99 468.764 200.597C501.825 193.203 522.633 160.414 515.24 127.353C510.566 106.458 495.754 90.459 477.134 83.3868L477.122 83.3745Z" fill="#EDE0D3"/>
<path d="M412.211 147.656C407.859 128.207 415.698 108.883 430.658 97.6316C411.457 107.683 400.577 129.704 405.535 151.86C411.457 178.343 437.718 194.997 464.202 189.075C471.237 187.505 477.567 184.5 482.982 180.433C479.248 182.386 475.193 183.895 470.878 184.859C444.395 190.781 418.134 174.115 412.211 147.644V147.656Z" fill="#362628"/>
<path d="M501.429 130.432C495.507 103.949 469.246 87.2947 442.762 93.217C438.447 94.1814 434.404 95.6897 430.658 97.6432C415.698 108.882 407.872 128.219 412.211 147.668C418.134 174.151 444.395 190.805 470.878 184.883C475.193 183.919 479.236 182.41 482.982 180.457C497.943 169.218 505.769 149.881 501.429 130.432Z" fill="#422E32"/>
<path d="M442.763 93.204C438.448 94.1684 434.405 95.6768 430.658 97.6303C411.457 107.682 400.577 129.702 405.535 151.858C411.457 178.342 437.718 194.996 464.202 189.074C471.237 187.503 477.567 184.499 482.982 180.431C497.943 169.193 505.769 149.855 501.429 130.407C495.507 103.923 469.246 87.2693 442.763 93.1916V93.204ZM483.526 177.724C478.68 181.359 473.005 184.054 466.712 185.463C442.998 190.768 422.857 176.487 417.528 158.547C411.729 139.049 442.688 138.419 440.29 115.879C438.707 101.043 443.43 98.879 449.476 98.0012C473.524 94.5393 494.741 109.203 500.045 132.917C503.939 150.338 496.917 167.647 483.526 177.711V177.724Z" fill="#AD6E4E"/>
<path d="M435.69 111.513C436.37 114.53 434.466 117.522 431.45 118.202C428.433 118.882 425.441 116.978 424.761 113.962C424.081 110.945 425.985 107.953 429.002 107.273C432.018 106.593 435.01 108.497 435.69 111.513Z" fill="#DEC8B2"/>
<path d="M434.8 111.118C435.455 114.036 433.613 116.917 430.708 117.572C427.79 118.228 424.909 116.385 424.254 113.48C423.598 110.562 425.441 107.681 428.346 107.026C431.264 106.371 434.145 108.213 434.8 111.118Z" fill="#422E32"/>
<path d="M426.887 111.107C426.961 111.416 426.764 111.725 426.455 111.799C426.145 111.873 425.836 111.675 425.762 111.366C425.688 111.057 425.886 110.748 426.195 110.674C426.504 110.6 426.813 110.797 426.887 111.107Z" fill="#DEC8B2"/>
<path d="M427.703 108.745C428.037 108.522 428.42 108.386 428.791 108.275C429.199 108.151 429.62 108.052 430.052 108.015C430.621 107.978 431.19 108.065 431.722 108.275C431.932 108.361 432.303 108.534 432.179 108.708C431.907 109.091 431.252 108.596 430.782 108.572C430.485 108.559 430.176 108.621 429.892 108.695C429.039 108.918 428.223 109.276 427.493 109.746C427.085 110.018 426.986 109.734 427.097 109.388C427.184 109.128 427.493 108.881 427.703 108.732V108.745Z" fill="#DEC8B2"/>
<path d="M415.265 137.394C416.65 138.593 416.786 140.695 415.587 142.068C414.387 143.452 412.286 143.588 410.913 142.389C409.541 141.19 409.392 139.088 410.592 137.715C411.791 136.331 413.893 136.195 415.265 137.394Z" fill="#DEC8B2"/>
<path d="M414.709 137.518C416.044 138.68 416.18 140.695 415.018 142.031C413.856 143.366 411.84 143.502 410.505 142.34C409.17 141.178 409.034 139.162 410.196 137.827C411.358 136.492 413.374 136.356 414.709 137.518Z" fill="#422E32"/>
<path d="M410.926 140.287C411.074 140.41 411.086 140.633 410.963 140.769C410.839 140.917 410.616 140.929 410.48 140.806C410.332 140.682 410.32 140.46 410.443 140.324C410.567 140.175 410.79 140.163 410.926 140.287Z" fill="#DEC8B2"/>
<path d="M410.493 138.877C410.567 138.655 410.703 138.457 410.851 138.271C411 138.074 411.173 137.876 411.358 137.703C411.618 137.48 411.915 137.319 412.249 137.245C412.372 137.208 412.619 137.159 412.619 137.295C412.619 137.567 412.137 137.567 411.902 137.715C411.754 137.814 411.63 137.95 411.519 138.086C411.185 138.494 410.926 138.951 410.74 139.434C410.641 139.706 410.493 139.607 410.431 139.409C410.382 139.261 410.431 139.026 410.493 138.877Z" fill="#DEC8B2"/>
<path d="M412.929 153.775C412.273 155.172 410.604 155.778 409.207 155.123C407.81 154.467 407.204 152.798 407.859 151.401C408.515 150.004 410.184 149.398 411.581 150.053C412.978 150.709 413.584 152.378 412.929 153.775Z" fill="#DEC8B2"/>
<path d="M412.706 153.342C412.075 154.689 410.456 155.27 409.108 154.64C407.76 154.009 407.179 152.39 407.81 151.042C408.44 149.694 410.06 149.113 411.408 149.744C412.755 150.374 413.336 151.994 412.706 153.342Z" fill="#422E32"/>
<path d="M409.577 150.918C409.515 151.066 409.342 151.128 409.194 151.054C409.046 150.992 408.984 150.819 409.058 150.671C409.12 150.523 409.293 150.461 409.441 150.535C409.589 150.609 409.651 150.77 409.577 150.918Z" fill="#DEC8B2"/>
<path d="M410.616 150.239C410.814 150.252 411.012 150.313 411.197 150.388C411.395 150.462 411.593 150.548 411.779 150.672C412.013 150.833 412.211 151.043 412.36 151.29C412.421 151.389 412.508 151.575 412.409 151.599C412.187 151.661 412.075 151.278 411.902 151.117C411.791 151.018 411.655 150.956 411.507 150.895C411.099 150.721 410.666 150.61 410.233 150.573C409.986 150.548 410.035 150.412 410.184 150.313C410.295 150.239 410.493 150.227 410.629 150.239H410.616Z" fill="#DEC8B2"/>
<path d="M420.446 168.142C421.336 168.847 421.484 170.145 420.78 171.035C420.075 171.925 418.777 172.074 417.886 171.369C416.996 170.664 416.848 169.366 417.553 168.476C418.257 167.585 419.555 167.437 420.446 168.142Z" fill="#DEC8B2"/>
<path d="M420.1 168.229C420.965 168.909 421.101 170.17 420.421 171.023C419.741 171.889 418.48 172.025 417.627 171.345C416.761 170.665 416.625 169.404 417.305 168.551C417.985 167.685 419.246 167.549 420.1 168.229Z" fill="#422E32"/>
<path d="M417.824 170.058C417.91 170.132 417.935 170.268 417.861 170.354C417.787 170.441 417.651 170.466 417.565 170.392C417.478 170.317 417.454 170.182 417.528 170.095C417.602 170.009 417.738 169.984 417.824 170.058Z" fill="#DEC8B2"/>
<path d="M417.515 169.193C417.565 169.057 417.639 168.921 417.726 168.81C417.812 168.674 417.911 168.55 418.022 168.439C418.171 168.291 418.356 168.192 418.566 168.13C418.64 168.105 418.789 168.068 418.801 168.155C418.801 168.328 418.504 168.34 418.368 168.439C418.282 168.501 418.208 168.587 418.146 168.686C417.948 168.946 417.8 169.243 417.701 169.539C417.639 169.712 417.552 169.651 417.503 169.539C417.466 169.44 417.503 169.304 417.528 169.205L417.515 169.193Z" fill="#DEC8B2"/>
<path d="M439.251 100.944C439.016 102.056 437.928 102.774 436.816 102.551C435.703 102.328 434.986 101.228 435.208 100.115C435.443 99.0025 436.531 98.2854 437.644 98.508C438.757 98.7429 439.474 99.8309 439.251 100.944Z" fill="#DEC8B2"/>
<path d="M439.016 100.672C438.794 101.748 437.743 102.44 436.667 102.217C435.592 101.995 434.899 100.944 435.122 99.8682C435.344 98.7925 436.395 98.1002 437.471 98.3227C438.547 98.5453 439.239 99.5962 439.016 100.672Z" fill="#422E32"/>
<path d="M436.358 99.4712C436.333 99.5823 436.222 99.6564 436.111 99.6317C436 99.607 435.926 99.4959 435.95 99.3848C435.975 99.2737 436.086 99.1996 436.197 99.2243C436.308 99.249 436.382 99.3601 436.358 99.4712Z" fill="#DEC8B2"/>
<path d="M436.989 98.8042C437.137 98.7795 437.286 98.8042 437.422 98.8042C437.582 98.8289 437.731 98.8537 437.879 98.9031C438.077 98.9773 438.25 99.0886 438.398 99.2493C438.46 99.3111 438.559 99.4224 438.485 99.4595C438.336 99.546 438.188 99.2864 438.04 99.1998C437.941 99.1504 437.83 99.1257 437.718 99.1009C437.397 99.0515 437.075 99.0391 436.754 99.1009C436.581 99.1257 436.593 99.0144 436.68 98.9154C436.742 98.8413 436.89 98.8042 436.989 98.7918V98.8042Z" fill="#DEC8B2"/>
<path d="M430.794 127.191C432.019 129.318 431.289 132.026 429.162 133.25C427.036 134.474 424.328 133.744 423.104 131.618C421.88 129.491 422.61 126.783 424.736 125.559C426.863 124.335 429.57 125.065 430.794 127.191Z" fill="#DEC8B2"/>
<path d="M430.04 127.105C431.227 129.157 430.522 131.778 428.47 132.965C426.418 134.152 423.797 133.448 422.61 131.395C421.423 129.343 422.127 126.722 424.18 125.535C426.232 124.348 428.853 125.052 430.04 127.105Z" fill="#422E32"/>
<path d="M424.044 128.973C424.167 129.195 424.093 129.467 423.871 129.603C423.648 129.727 423.376 129.653 423.24 129.43C423.116 129.208 423.191 128.936 423.413 128.8C423.636 128.676 423.908 128.75 424.044 128.973Z" fill="#DEC8B2"/>
<path d="M424.106 126.994C424.303 126.747 424.563 126.561 424.823 126.376C425.107 126.19 425.404 126.005 425.713 125.881C426.133 125.72 426.591 125.646 427.036 125.683C427.209 125.696 427.543 125.745 427.481 125.906C427.357 126.264 426.751 126.042 426.393 126.141C426.158 126.203 425.948 126.314 425.75 126.437C425.156 126.808 424.625 127.266 424.18 127.81C423.932 128.107 423.796 127.921 423.796 127.637C423.796 127.414 423.97 127.155 424.106 126.994Z" fill="#DEC8B2"/>
<path d="M422.968 115.756C424.192 117.882 423.463 120.59 421.336 121.814C419.21 123.038 416.502 122.308 415.278 120.182C414.054 118.055 414.783 115.348 416.91 114.124C419.036 112.9 421.744 113.629 422.968 115.756Z" fill="#DEC8B2"/>
<path d="M422.214 115.67C423.401 117.722 422.696 120.344 420.644 121.53C418.591 122.717 415.97 122.013 414.783 119.96C413.596 117.908 414.301 115.287 416.353 114.1C418.406 112.913 421.027 113.618 422.214 115.67Z" fill="#422E32"/>
<path d="M416.217 117.537C416.341 117.759 416.267 118.031 416.044 118.167C415.822 118.291 415.55 118.217 415.414 117.994C415.29 117.772 415.364 117.5 415.587 117.364C415.809 117.228 416.081 117.314 416.217 117.537Z" fill="#DEC8B2"/>
<path d="M416.279 115.559C416.477 115.312 416.737 115.126 416.996 114.941C417.281 114.755 417.577 114.57 417.887 114.446C418.307 114.286 418.764 114.211 419.209 114.248C419.383 114.261 419.716 114.31 419.655 114.471C419.531 114.83 418.925 114.607 418.567 114.706C418.332 114.768 418.121 114.879 417.924 115.003C417.33 115.374 416.799 115.831 416.353 116.375C416.106 116.672 415.97 116.486 415.97 116.202C415.97 115.979 416.143 115.72 416.279 115.559Z" fill="#DEC8B2"/>
<path d="M415.908 132.694C414.041 133.732 411.692 133.077 410.653 131.21C409.615 129.343 410.27 126.994 412.137 125.955C414.004 124.917 416.353 125.572 417.392 127.439C418.43 129.306 417.775 131.655 415.908 132.694Z" fill="#DEC8B2"/>
<path d="M415.995 132.039C414.202 133.04 411.927 132.409 410.913 130.604C409.912 128.812 410.542 126.537 412.347 125.523C414.14 124.521 416.415 125.152 417.429 126.957C418.443 128.762 417.8 131.025 415.995 132.039Z" fill="#422E32"/>
<path d="M414.437 126.796C414.239 126.908 414.004 126.833 413.893 126.648C413.782 126.45 413.856 126.215 414.041 126.104C414.239 125.993 414.474 126.067 414.585 126.252C414.697 126.45 414.622 126.685 414.437 126.796Z" fill="#DEC8B2"/>
<path d="M416.155 126.871C416.366 127.044 416.526 127.267 416.687 127.501C416.848 127.749 416.996 128.008 417.107 128.28C417.243 128.651 417.305 129.047 417.268 129.443C417.256 129.591 417.219 129.875 417.07 129.826C416.761 129.715 416.959 129.195 416.885 128.874C416.835 128.676 416.736 128.491 416.625 128.305C416.316 127.786 415.908 127.316 415.451 126.92C415.191 126.698 415.364 126.587 415.611 126.587C415.797 126.587 416.032 126.747 416.168 126.859L416.155 126.871Z" fill="#DEC8B2"/>
<path d="M240.229 572.44L7.90616 520.935C2.34597 519.569 -1.04917 513.96 0.316278 508.412L70.7658 221.386C72.1313 215.825 77.7407 212.43 83.2886 213.796L319.732 274.023L240.229 572.44Z" fill="#5E34BD"/>
<path d="M237.006 570.975L465.256 638.25C470.78 639.739 476.463 636.479 477.951 630.956L555.105 345.664C556.594 340.141 553.334 334.457 547.81 332.969L311.736 271.339L237.006 570.987V570.975Z" fill="#5E34BD"/>
<path d="M239.933 564.924L234.447 560.311C207.458 537.616 174.663 522.916 139.752 517.86L2.81351 516.26L90.7924 215.641L227.731 217.24C262.629 222.296 295.425 236.996 322.426 259.692L327.912 264.305L239.933 564.924Z" fill="#EEEEEE"/>
<path d="M239.933 564.923L234.447 560.31C207.458 537.615 174.663 522.915 139.752 517.859L16.3203 512.299L104.299 211.679L227.731 217.239C262.629 222.295 295.425 236.995 322.426 259.691L327.912 264.304L239.933 564.923Z" fill="white"/>
<path d="M239.404 564.776L246.515 563.853C281.487 559.289 317.026 564.591 349.144 579.156L456.092 641.019L546.666 326.905L442.376 277.38C410.257 262.816 369.466 258.682 334.493 263.234L327.383 264.157L239.404 564.776Z" fill="#F8F8F8"/>
<path fill-rule="evenodd" clip-rule="evenodd" d="M216.27 260.349L123.331 248.085L124.115 242.141L217.245 254.43L217.339 254.449C244.248 259.768 270.325 269.922 292.629 283.802L297.095 286.582L293.926 291.672L289.462 288.892C289.461 288.892 289.462 288.892 289.462 288.892C267.827 275.43 242.469 265.54 216.27 260.349Z" fill="#E8E8E8"/>
<path fill-rule="evenodd" clip-rule="evenodd" d="M209.947 277.657L117.008 265.392L117.792 259.449L210.922 271.738L211.016 271.757C237.925 277.076 264.002 287.23 286.306 301.11L290.772 303.89L287.604 308.979L283.139 306.2C261.504 292.737 236.147 282.847 209.947 277.657Z" fill="#E8E8E8"/>
<path fill-rule="evenodd" clip-rule="evenodd" d="M203.624 294.965L110.685 282.701L111.469 276.757L204.599 289.046L204.693 289.065C231.602 294.385 257.679 304.539 279.983 318.418L284.449 321.198L281.281 326.288L276.816 323.508C255.181 310.046 229.824 300.156 203.624 294.965Z" fill="#E8E8E8"/>
<path fill-rule="evenodd" clip-rule="evenodd" d="M216.27 260.348L123.331 248.084L124.115 242.14L217.245 254.429L217.339 254.448C244.248 259.767 270.325 269.921 292.629 283.801L297.095 286.581L293.926 291.671L289.462 288.891C289.461 288.891 289.462 288.891 289.462 288.891C267.827 275.429 242.469 265.539 216.27 260.348Z" fill="#E8E8E8"/>
<path fill-rule="evenodd" clip-rule="evenodd" d="M209.947 277.656L117.008 265.392L117.792 259.449L210.922 271.738L211.016 271.756C237.925 277.076 264.002 287.23 286.306 301.109L290.772 303.89L287.604 308.979L283.139 306.2C261.504 292.737 236.147 282.847 209.947 277.656Z" fill="#E8E8E8"/>
<path fill-rule="evenodd" clip-rule="evenodd" d="M203.625 294.964L110.685 282.7L111.469 276.756L204.599 289.045L204.693 289.064C231.602 294.384 257.679 304.538 279.983 318.417L284.449 321.197L281.281 326.287L276.816 323.507C255.181 310.045 229.824 300.155 203.625 294.964Z" fill="#E8E8E8"/>
<path fill-rule="evenodd" clip-rule="evenodd" d="M196.957 326.503L104.018 314.239L104.802 308.295L197.932 320.585L198.026 320.603C224.935 325.923 251.012 336.077 273.316 349.956L277.782 352.737L274.613 357.826L270.149 355.046C270.148 355.046 270.149 355.046 270.149 355.046C248.514 341.584 223.156 331.694 196.957 326.503Z" fill="#E8E8E8"/>
<path fill-rule="evenodd" clip-rule="evenodd" d="M190.622 343.811L97.6825 331.547L98.4668 325.603L191.597 337.892L191.691 337.911C218.6 343.23 244.676 353.384 266.981 367.264L271.447 370.044L268.278 375.134L263.813 372.354C263.813 372.354 263.813 372.354 263.813 372.354C242.179 358.892 216.821 349.002 190.622 343.811Z" fill="#E8E8E8"/>
<path fill-rule="evenodd" clip-rule="evenodd" d="M184.299 361.118L91.3597 348.853L92.1441 342.91L185.274 355.199L185.368 355.218C212.277 360.537 238.354 370.691 260.658 384.57L265.124 387.351L261.955 392.44L257.49 389.661C257.49 389.661 257.491 389.661 257.49 389.661C235.856 376.198 210.498 366.308 184.299 361.118Z" fill="#E8E8E8"/>
<path fill-rule="evenodd" clip-rule="evenodd" d="M177.091 397.091L84.1512 384.827L84.9355 378.883L178.065 391.172L178.159 391.191C205.068 396.511 231.145 406.664 253.449 420.544L257.915 423.324L254.747 428.414L250.282 425.634C250.282 425.634 250.282 425.634 250.282 425.634C228.647 412.172 203.29 402.282 177.091 397.091Z" fill="#E8E8E8"/>
<path fill-rule="evenodd" clip-rule="evenodd" d="M170.767 414.4L77.8283 402.136L78.6126 396.192L171.743 408.481L171.837 408.5C199.223 413.917 232.649 428.84 247.127 437.853L251.593 440.633L248.424 445.723L243.959 442.943C243.959 442.943 243.959 442.943 243.959 442.943C230.036 434.276 197.343 419.676 170.767 414.4Z" fill="#E8E8E8"/>
<path fill-rule="evenodd" clip-rule="evenodd" d="M164.445 431.706L71.5054 419.442L72.2897 413.498L165.419 425.788L165.513 425.806C179.533 428.574 196.728 434.912 211.118 440.995C225.484 447.068 237.383 453.029 240.804 455.16L245.27 457.94L242.101 463.029L237.636 460.249C234.636 458.381 223.101 452.57 208.783 446.517C194.523 440.489 177.829 434.361 164.445 431.706Z" fill="#E8E8E8"/>
<path fill-rule="evenodd" clip-rule="evenodd" d="M156.904 458.596L63.9648 446.332L64.7492 440.388L157.879 452.677L157.973 452.696C184.882 458.016 210.959 468.169 233.263 482.049L237.729 484.829L234.56 489.919L230.096 487.139C230.095 487.139 230.096 487.139 230.096 487.139C208.461 473.677 183.103 463.787 156.904 458.596Z" fill="#E8E8E8"/>
<path fill-rule="evenodd" clip-rule="evenodd" d="M152.673 476.692L59.7332 464.428L60.5175 458.484L153.647 470.773L153.741 470.792C180.65 476.111 206.727 486.265 229.031 500.145L233.497 502.925L230.329 508.015L225.864 505.235C225.864 505.235 225.864 505.235 225.864 505.235C204.229 491.772 178.872 481.883 152.673 476.692Z" fill="#E8E8E8"/>
<path fill-rule="evenodd" clip-rule="evenodd" d="M148.428 494.773L55.4891 482.509L56.2735 476.565L149.403 488.854L149.497 488.873C176.406 494.192 202.483 504.346 224.787 518.226L229.253 521.006L226.085 526.096L221.62 523.316C221.62 523.316 221.62 523.316 221.62 523.316C199.985 509.854 174.628 499.964 148.428 494.773Z" fill="#E8E8E8"/>
<path fill-rule="evenodd" clip-rule="evenodd" d="M335.807 324.268C335.807 324.268 335.807 324.268 335.822 321.27C335.837 318.273 335.838 318.273 335.838 318.273L335.995 318.274C336.097 318.275 336.249 318.276 336.448 318.277C336.844 318.281 337.428 318.286 338.178 318.296C339.677 318.314 341.843 318.347 344.513 318.404C349.85 318.518 357.208 318.729 365.288 319.117C381.35 319.889 400.583 321.374 412.353 324.277C442.256 331.66 481.254 345.938 503.619 359.835L503.622 359.837L508.087 362.617L504.918 367.706L500.455 364.928C500.455 364.928 500.455 364.928 500.455 364.928C478.831 351.491 440.502 337.402 410.917 330.098C399.794 327.354 381.121 325.881 365 325.106C356.987 324.721 349.685 324.511 344.385 324.398C341.735 324.341 339.587 324.309 338.104 324.291C337.362 324.281 336.786 324.276 336.396 324.272C336.202 324.271 336.053 324.27 335.954 324.269L335.807 324.268Z" fill="#E8E8E8"/>
<path fill-rule="evenodd" clip-rule="evenodd" d="M340.082 305.043C340.082 305.043 340.082 305.043 340.097 302.045C340.112 299.047 340.113 299.047 340.113 299.047L340.27 299.048C340.372 299.049 340.524 299.05 340.723 299.052C341.119 299.055 341.703 299.061 342.453 299.07C343.952 299.089 346.118 299.122 348.788 299.179C354.125 299.293 361.483 299.504 369.563 299.892C385.625 300.664 404.858 302.149 416.628 305.052C446.531 312.435 485.529 326.713 507.894 340.61L507.897 340.611L512.362 343.391L509.193 348.481L504.73 345.702C504.73 345.702 504.73 345.702 504.73 345.702C483.106 332.266 444.777 318.177 415.192 310.872C404.069 308.129 385.396 306.655 369.275 305.88C361.263 305.495 353.96 305.286 348.66 305.172C346.01 305.116 343.862 305.083 342.379 305.065C341.637 305.056 341.061 305.05 340.671 305.047C340.477 305.045 340.328 305.044 340.229 305.044L340.082 305.043Z" fill="#E8E8E8"/>
<path fill-rule="evenodd" clip-rule="evenodd" d="M331.253 344.148C331.253 344.148 331.252 344.148 331.32 341.151C331.387 338.154 331.388 338.154 331.388 338.154L331.585 338.159C331.714 338.162 331.905 338.166 332.154 338.173C332.653 338.186 333.386 338.206 334.326 338.235C336.206 338.292 338.916 338.382 342.24 338.516C348.885 338.784 357.993 339.226 367.837 339.921C387.36 341.3 410.298 343.707 422.397 347.901C428.486 350.015 434.702 352.003 440.943 353.999C460.513 360.257 480.331 366.595 497.286 377.146L501.752 379.926L498.583 385.016L494.118 382.236C494.118 382.236 494.119 382.236 494.118 382.236C477.856 372.116 459.048 366.097 439.657 359.892C433.288 357.854 426.857 355.796 420.432 353.565C409.219 349.678 387.111 347.293 367.414 345.902C357.648 345.212 348.603 344.773 341.998 344.507C338.697 344.374 336.007 344.284 334.144 344.227C333.213 344.199 332.488 344.179 331.997 344.166C331.752 344.16 331.565 344.155 331.439 344.152L331.253 344.148Z" fill="#E8E8E8"/>
<path fill-rule="evenodd" clip-rule="evenodd" d="M414.26 385.234L321.321 372.97L322.105 367.026L415.235 379.315L415.329 379.334C442.238 384.653 468.314 394.807 490.619 408.687L495.085 411.467L491.916 416.557L487.451 413.777C487.451 413.777 487.451 413.777 487.451 413.777C465.817 400.314 440.459 390.425 414.26 385.234Z" fill="#E8E8E8"/>
<path fill-rule="evenodd" clip-rule="evenodd" d="M407.937 402.541L314.998 390.277L315.782 384.333L408.912 396.623L409.006 396.641C435.915 401.961 461.991 412.115 484.296 425.994L488.762 428.775L485.593 433.864L481.128 431.084C481.128 431.084 481.128 431.085 481.128 431.084C459.494 417.622 434.136 407.732 407.937 402.541Z" fill="#E8E8E8"/>
<path fill-rule="evenodd" clip-rule="evenodd" d="M401.614 419.849L308.675 407.585L309.459 401.641L402.589 413.93L402.683 413.949C429.592 419.268 455.669 429.422 477.973 443.302L482.439 446.082L479.27 451.172L474.806 448.392C474.805 448.392 474.806 448.392 474.806 448.392C453.171 434.93 427.813 425.04 401.614 419.849Z" fill="#E8E8E8"/>
<path fill-rule="evenodd" clip-rule="evenodd" d="M394.405 455.831L301.466 443.567L302.25 437.623L395.38 449.913L395.474 449.931C422.383 455.251 448.46 465.405 470.764 479.284L475.23 482.065L472.062 487.154L467.597 484.374C467.597 484.374 467.597 484.375 467.597 484.374C445.962 470.912 420.605 461.022 394.405 455.831Z" fill="#E8E8E8"/>
<path fill-rule="evenodd" clip-rule="evenodd" d="M388.082 473.139L295.143 460.875L295.927 454.931L389.057 467.22L389.152 467.239C416.538 472.656 449.964 487.58 464.442 496.592L468.907 499.372L465.739 504.462L461.273 501.682C461.273 501.682 461.273 501.682 461.273 501.682C447.351 493.015 414.657 478.415 388.082 473.139Z" fill="#E8E8E8"/>
<path fill-rule="evenodd" clip-rule="evenodd" d="M381.76 490.447L288.82 478.182L289.605 472.239L382.734 484.528L382.828 484.546C396.848 487.314 414.043 493.652 428.433 499.735C442.799 505.809 454.698 511.77 458.119 513.9L462.585 516.68L459.416 521.769L454.951 518.989C451.951 517.122 440.416 511.31 426.098 505.258C411.838 499.229 395.144 493.102 381.76 490.447Z" fill="#E8E8E8"/>
<path fill-rule="evenodd" clip-rule="evenodd" d="M374.219 517.337L281.28 505.073L282.064 499.129L375.194 511.419L375.288 511.437C402.197 516.757 428.273 526.911 450.578 540.79L455.044 543.571L451.875 548.66L447.41 545.88C447.41 545.88 447.411 545.88 447.41 545.88C425.776 532.418 400.418 522.528 374.219 517.337Z" fill="#E8E8E8"/>
<path fill-rule="evenodd" clip-rule="evenodd" d="M369.987 535.42L277.048 523.156L277.832 517.212L370.962 529.502L371.056 529.52C397.965 534.84 424.042 544.994 446.346 558.873L450.812 561.654L447.644 566.743L443.179 563.963C443.179 563.963 443.179 563.964 443.179 563.963C421.544 550.501 396.187 540.611 369.987 535.42Z" fill="#E8E8E8"/>
<path fill-rule="evenodd" clip-rule="evenodd" d="M365.743 553.516L272.804 541.252L273.588 535.308L366.718 547.597L366.812 547.616C393.721 552.935 419.798 563.089 442.102 576.969L446.568 579.749L443.4 584.839L438.935 582.059C417.3 568.597 391.943 558.707 365.743 553.516Z" fill="#E8E8E8"/>
<g class="star">
    <path d="M252.533 42.9995C250.319 54.955 240.97 64.3038 229.014 66.5185C240.97 68.7332 250.319 78.0819 252.533 90.0374C254.748 78.0819 264.097 68.7332 276.052 66.5185C264.097 64.3038 254.748 54.955 252.533 42.9995Z" fill="white"/>
</g>
<g class="star">
    <path d="M570.533 248C568.319 259.955 558.97 269.304 547.014 271.518C558.97 273.733 568.319 283.082 570.533 295.037C572.748 283.082 582.097 273.733 594.052 271.518C582.097 269.304 572.748 259.955 570.533 248Z" fill="white"/>
</g>
<g class="star-reversed">
    <path d="M203.007 616C201.498 624.133 195.148 630.483 187.014 631.992C195.148 633.502 201.498 639.852 203.007 647.985C204.516 639.852 210.866 633.502 219 631.992C210.866 630.483 204.516 624.133 203.007 616Z" fill="white"/>
</g>
<g class="star">
    <path d="M292.514 604C291.429 609.848 286.863 614.414 281.014 615.5C286.863 616.585 291.429 621.151 292.514 627C293.6 621.151 298.166 616.585 304.014 615.5C298.166 614.414 293.6 609.848 292.514 604Z" fill="white"/>
</g>
<g class="star-reversed">
    <path d="M303.992 164.001C302.483 172.135 296.133 178.485 287.999 179.994C296.133 181.503 302.483 187.854 303.992 195.987C305.501 187.854 311.851 181.503 319.985 179.994C311.851 178.485 305.501 172.135 303.992 164.001Z" fill="white"/>    
</g>
<style>
    .stylus {
        animation: trasX 3s infinite ease-in-out;
    }

    .star {
        animation: star 3s infinite ease-in-out;
    }

    .star-reversed {
        animation: star-reversed 3s infinite ease-in-out;
    }

    @keyframes trasX {
        0% {
            transform: translateY(5px);
        }
        50% {
            transform: translateY(-5px);
        }
        100% {
            transform: translateY(5px);
        }
    }

    @keyframes star {
        0% {
            opacity: 1;
        } 
        50% {
            opacity: 0.4;
        }
        100% {
            opacity: 1;
        }
    }

    @keyframes star-reversed {
        0% {
            opacity: 0.4;
        } 
        50% {
            opacity: 1;
        }
        100% {
            opacity: 0.4;
        }
    }
    </style>
</svg>
