<svg width="715" height="671" viewBox="0 0 715 671" fill="none" xmlns="http://www.w3.org/2000/svg">
<path d="M226.549 430.478C228.018 430.478 229.487 430.478 230.937 430.439C231.486 430.439 231.917 429.988 231.897 429.439C231.897 428.891 231.427 428.46 230.898 428.479C228.293 428.519 225.707 428.519 223.082 428.479C222.612 428.44 222.102 428.91 222.083 429.439C222.083 429.988 222.514 430.419 223.043 430.439C224.198 430.439 225.354 430.458 226.51 430.458L226.549 430.478ZM211.348 430.066C211.857 430.066 212.308 429.655 212.327 429.146C212.347 428.597 211.936 428.146 211.407 428.107C208.801 427.97 206.216 427.794 203.61 427.578C203.081 427.539 202.592 427.931 202.552 428.479C202.513 429.028 202.905 429.498 203.453 429.537C206.059 429.753 208.684 429.929 211.289 430.066C211.289 430.066 211.328 430.066 211.348 430.066ZM242.671 430.008C242.671 430.008 242.71 430.008 242.73 430.008C245.355 429.851 247.96 429.675 250.565 429.459C251.114 429.42 251.506 428.95 251.467 428.401C251.427 427.852 250.938 427.48 250.409 427.5C247.823 427.715 245.218 427.911 242.612 428.048C242.064 428.088 241.652 428.538 241.692 429.087C241.711 429.616 242.162 430.008 242.671 430.008ZM191.837 428.362C192.327 428.362 192.738 427.99 192.817 427.5C192.875 426.971 192.503 426.481 191.955 426.403C189.369 426.089 186.783 425.736 184.217 425.364C183.688 425.286 183.179 425.658 183.1 426.187C183.022 426.716 183.394 427.225 183.923 427.304C186.509 427.696 189.114 428.048 191.719 428.362C191.759 428.362 191.798 428.362 191.837 428.362ZM262.162 428.205C262.162 428.205 262.241 428.205 262.28 428.205C264.885 427.872 267.471 427.5 270.057 427.088C270.586 427.01 270.958 426.5 270.879 425.971C270.801 425.442 270.292 425.07 269.763 425.149C267.197 425.56 264.611 425.913 262.045 426.246C261.516 426.324 261.124 426.814 261.202 427.343C261.261 427.833 261.692 428.205 262.182 428.205H262.162ZM172.483 425.344C172.953 425.344 173.345 425.011 173.443 424.541C173.541 424.012 173.188 423.503 172.659 423.405C170.093 422.915 167.546 422.406 165 421.837C164.451 421.72 163.942 422.053 163.844 422.582C163.727 423.111 164.06 423.64 164.589 423.738C167.155 424.306 169.721 424.815 172.287 425.305C172.346 425.305 172.405 425.305 172.463 425.305L172.483 425.344ZM153.364 421.034C153.795 421.034 154.187 420.74 154.304 420.309C154.441 419.78 154.128 419.251 153.599 419.114C151.072 418.448 148.565 417.762 146.077 417.037C145.548 416.88 145.019 417.194 144.862 417.703C144.705 418.232 145.019 418.761 145.528 418.918C148.055 419.643 150.582 420.348 153.109 420.995C153.188 421.014 153.266 421.034 153.364 421.034ZM134.597 415.45C135.009 415.45 135.381 415.195 135.518 414.784C135.694 414.274 135.42 413.706 134.891 413.55C132.423 412.727 129.974 411.865 127.526 410.983C127.016 410.806 126.448 411.061 126.272 411.571C126.096 412.08 126.35 412.648 126.86 412.825C129.328 413.726 131.796 414.588 134.284 415.411C134.382 415.45 134.5 415.47 134.597 415.47V415.45ZM116.242 408.612C116.634 408.612 116.987 408.377 117.143 408.005C117.339 407.495 117.104 406.927 116.615 406.731C114.205 405.751 111.815 404.713 109.425 403.655C108.936 403.44 108.348 403.655 108.132 404.145C107.917 404.635 108.132 405.223 108.622 405.438C111.012 406.496 113.422 407.534 115.851 408.534C115.968 408.592 116.105 408.612 116.223 408.612H116.242ZM98.3966 400.54C98.7492 400.54 99.1018 400.344 99.2781 399.991C99.5132 399.501 99.3173 398.914 98.8276 398.678C96.4964 397.522 94.1849 396.347 91.8734 395.112C91.3837 394.858 90.796 395.034 90.5413 395.524C90.2867 395.994 90.463 396.602 90.9527 396.856C93.2643 398.091 95.5953 399.286 97.946 400.442C98.0832 400.52 98.2399 400.54 98.377 400.54H98.3966ZM81.1581 391.253C81.4911 391.253 81.8241 391.076 82.0004 390.763C82.2747 390.293 82.118 389.705 81.6479 389.431C79.3951 388.118 77.1815 386.766 74.9679 385.394C74.4978 385.12 73.9101 385.257 73.6163 385.708C73.3224 386.159 73.4792 386.766 73.9297 387.06C76.1629 388.451 78.396 389.803 80.6684 391.116C80.8251 391.213 81.0014 391.253 81.1581 391.253ZM64.6052 380.77C64.9187 380.77 65.2321 380.614 65.4084 380.339C65.7218 379.889 65.6043 379.281 65.1537 378.968C63.0185 377.498 60.8833 376.009 58.7872 374.461C58.3563 374.148 57.7294 374.226 57.416 374.677C57.1025 375.108 57.1809 375.735 57.6315 376.049C59.7471 377.596 61.8823 379.125 64.0567 380.594C64.233 380.712 64.4093 380.77 64.6052 380.77ZM48.9535 369.015C49.2277 369.015 49.5215 368.897 49.6978 368.662C50.0504 368.25 49.9917 367.624 49.5803 367.29C47.543 365.586 45.5841 363.862 43.7428 362.157C43.351 361.785 42.7241 361.804 42.3519 362.216C41.9797 362.608 41.9993 363.235 42.4107 363.607C44.2717 365.331 46.2697 367.095 48.3266 368.819C48.5029 368.975 48.738 369.054 48.9535 369.054V369.015ZM34.8296 355.456C35.0647 355.456 35.2998 355.378 35.4761 355.202C35.8875 354.849 35.9071 354.222 35.5545 353.81C34.3987 352.498 33.2625 351.165 32.1655 349.813C31.6366 349.167 31.1077 348.501 30.5984 347.835C30.2653 347.404 29.6581 347.325 29.2271 347.658C28.7962 347.991 28.7178 348.599 29.0509 349.03C29.5798 349.715 30.1087 350.382 30.6376 351.048C31.7542 352.439 32.9099 353.791 34.0853 355.123C34.2812 355.339 34.5554 355.456 34.8101 355.456H34.8296ZM23.1741 339.743C23.3504 339.743 23.5267 339.703 23.6834 339.605C24.1535 339.331 24.2907 338.724 24.0164 338.254C22.6844 336.079 21.3915 333.806 20.1769 331.494C19.9223 331.024 19.3345 330.828 18.8448 331.083C18.3747 331.337 18.1788 331.925 18.4335 332.415C19.6676 334.766 20.9801 337.078 22.3318 339.292C22.5081 339.586 22.8411 339.762 23.1741 339.762V339.743ZM14.3589 322.285C14.4765 322.285 14.6136 322.266 14.7311 322.207C15.2209 321.991 15.4755 321.423 15.26 320.933C14.3002 318.582 13.3599 316.133 12.5175 313.664C12.3412 313.155 11.7927 312.881 11.2638 313.057C10.7545 313.233 10.4803 313.801 10.6566 314.311C11.5381 316.819 12.4588 319.307 13.4382 321.698C13.5949 322.07 13.9671 322.305 14.3393 322.305L14.3589 322.285ZM8.16873 303.711C8.16873 303.711 8.32547 303.711 8.4234 303.672C8.9523 303.535 9.26572 303.006 9.1286 302.477C8.48215 300.028 7.87491 297.461 7.30682 294.894C7.1893 294.365 6.66037 294.032 6.15106 294.15C5.62216 294.267 5.28915 294.777 5.40668 295.306C5.97476 297.912 6.582 300.478 7.24805 302.967C7.36557 303.398 7.75739 303.692 8.18835 303.692L8.16873 303.711ZM4.19214 284.53C4.19214 284.53 4.29004 284.53 4.34882 284.53C4.87772 284.451 5.24997 283.942 5.1716 283.413C4.77982 280.885 4.40756 278.279 4.09415 275.674C4.03537 275.145 3.52606 274.753 2.99716 274.811C2.46826 274.87 2.07648 275.36 2.13525 275.909C2.44867 278.534 2.82089 281.14 3.21268 283.707C3.29105 284.196 3.70239 284.53 4.17255 284.53H4.19214ZM1.95895 265.054C1.95895 265.054 2.01773 265.054 2.03732 265.054C2.58582 265.015 2.9776 264.545 2.93842 263.996C2.74252 261.41 2.58578 258.804 2.44867 256.198C2.42908 255.649 2.01773 255.238 1.43005 255.277C0.881561 255.297 0.470184 255.767 0.509369 256.296C0.646484 258.921 0.803192 261.527 0.999084 264.133C1.03827 264.643 1.46924 265.035 1.97855 265.035L1.95895 265.054ZM180.789 248.165C181.298 248.165 181.729 247.773 181.768 247.264C181.807 246.715 181.416 246.245 180.867 246.206C178.458 246.01 175.97 245.637 173.247 245.069C172.738 244.952 172.189 245.304 172.091 245.833C171.974 246.362 172.326 246.891 172.855 246.989C175.656 247.577 178.223 247.949 180.73 248.145C180.75 248.145 180.789 248.145 180.808 248.145L180.789 248.165ZM192.483 247.499C192.483 247.499 192.621 247.499 192.699 247.479C193.11 247.381 193.502 247.303 193.914 247.185C196.108 246.617 198.262 245.794 200.3 244.736C200.789 244.481 200.966 243.894 200.711 243.423C200.456 242.934 199.869 242.757 199.398 242.992C197.498 243.972 195.481 244.756 193.424 245.285C193.052 245.383 192.66 245.481 192.288 245.559C191.759 245.677 191.426 246.206 191.543 246.735C191.641 247.185 192.053 247.499 192.503 247.499H192.483ZM1.07745 245.5C1.62595 245.5 2.05692 245.05 2.03732 244.501C1.97855 241.895 1.95895 239.289 1.95895 236.683C1.95895 236.135 1.52798 235.704 0.979492 235.704C0.431 235.704 3.05176e-05 236.135 3.05176e-05 236.683C3.05176e-05 239.289 0.0196228 241.915 0.0783997 244.54C0.0783997 245.069 0.528961 245.5 1.05786 245.5H1.07745ZM161.728 243.933C162.14 243.933 162.532 243.678 162.649 243.267C162.825 242.757 162.532 242.209 162.022 242.032C159.652 241.249 157.203 240.347 154.716 239.368C154.206 239.172 153.638 239.407 153.442 239.916C153.246 240.426 153.481 240.994 153.991 241.19C156.518 242.189 159.006 243.11 161.395 243.894C161.493 243.933 161.611 243.952 161.709 243.952L161.728 243.933ZM209.095 237.702C209.35 237.702 209.624 237.604 209.82 237.389C211.583 235.469 213.209 233.294 214.619 230.962C214.894 230.492 214.756 229.904 214.286 229.61C213.816 229.336 213.228 229.473 212.935 229.943C211.583 232.177 210.055 234.234 208.37 236.056C207.998 236.448 208.037 237.075 208.429 237.448C208.625 237.624 208.86 237.702 209.095 237.702ZM143.589 236.546C143.961 236.546 144.314 236.331 144.47 235.978C144.705 235.488 144.49 234.9 144 234.665C141.65 233.549 139.318 232.412 136.987 231.237C136.498 230.982 135.91 231.178 135.675 231.668C135.44 232.157 135.616 232.745 136.106 232.98C138.437 234.156 140.807 235.312 143.158 236.429C143.295 236.488 143.432 236.527 143.569 236.527L143.589 236.546ZM126.115 227.69C126.468 227.69 126.801 227.494 126.977 227.161C127.232 226.691 127.056 226.084 126.566 225.829C124.274 224.614 121.962 223.38 119.67 222.126C119.2 221.871 118.593 222.047 118.338 222.518C118.084 222.988 118.26 223.595 118.73 223.85C121.022 225.104 123.334 226.338 125.645 227.553C125.782 227.631 125.939 227.671 126.096 227.671L126.115 227.69ZM1.11664 225.907C1.64554 225.907 2.07648 225.476 2.09607 224.947C2.15485 222.341 2.21365 219.736 2.31158 217.13C2.31158 216.581 1.90021 216.13 1.37131 216.111C0.842407 216.072 0.372284 216.522 0.352692 217.051C0.254761 219.677 0.195953 222.283 0.137177 224.908C0.137177 225.457 0.548523 225.888 1.09702 225.907H1.11664ZM218.439 220.696C218.87 220.696 219.262 220.421 219.379 219.99C220.124 217.443 220.653 214.798 220.966 212.153C221.025 211.624 220.653 211.134 220.104 211.056C219.575 210.977 219.086 211.369 219.027 211.918C218.733 214.445 218.204 216.992 217.499 219.442C217.342 219.971 217.656 220.5 218.165 220.656C218.263 220.676 218.341 220.696 218.439 220.696ZM108.936 218.266C109.269 218.266 109.602 218.09 109.778 217.776C110.052 217.306 109.876 216.699 109.425 216.444C107.173 215.151 104.92 213.818 102.687 212.486C102.236 212.212 101.629 212.349 101.335 212.819C101.061 213.289 101.198 213.877 101.668 214.171C103.901 215.523 106.174 216.855 108.446 218.168C108.603 218.246 108.759 218.305 108.936 218.305V218.266ZM92.226 208.038C92.5394 208.038 92.8528 207.882 93.0487 207.588C93.3426 207.137 93.2251 206.53 92.7745 206.236C90.6001 204.806 88.4453 203.356 86.31 201.867C85.8595 201.553 85.2523 201.671 84.9388 202.102C84.6254 202.552 84.7429 203.16 85.1739 203.473C87.3287 204.982 89.4835 206.451 91.6971 207.882C91.8538 207.999 92.0497 208.038 92.226 208.038ZM1.9198 206.334C2.42911 206.334 2.86008 205.942 2.89926 205.413C3.07556 202.807 3.29102 200.221 3.56528 197.635C3.62405 197.106 3.23224 196.616 2.68375 196.557C2.19403 196.518 1.66513 196.89 1.60635 197.439C1.35168 200.045 1.11664 202.67 0.940338 205.276C0.901154 205.824 1.3125 206.275 1.8414 206.314C1.86099 206.314 1.88062 206.314 1.9198 206.314V206.334ZM219.869 201.298C219.869 201.298 219.967 201.298 220.006 201.298C220.535 201.22 220.907 200.73 220.829 200.182C220.457 197.576 219.889 194.97 219.144 192.403C218.988 191.894 218.459 191.58 217.93 191.737C217.421 191.894 217.107 192.423 217.264 192.952C217.989 195.44 218.537 197.968 218.89 200.476C218.968 200.965 219.379 201.318 219.85 201.318L219.869 201.298ZM76.2804 196.675C76.5742 196.675 76.8681 196.537 77.0444 196.302C77.3774 195.871 77.2991 195.264 76.8681 194.931C74.8112 193.324 72.774 191.659 70.815 190.013C70.4037 189.66 69.7768 189.719 69.4242 190.13C69.0716 190.542 69.1303 191.169 69.5417 191.522C71.5202 193.187 73.577 194.852 75.6535 196.479C75.8298 196.616 76.0453 196.694 76.2608 196.694L76.2804 196.675ZM4.09415 186.878C4.5643 186.878 4.97571 186.545 5.05408 186.055C5.46545 183.449 5.9552 180.883 6.46451 178.394C6.58203 177.865 6.2294 177.336 5.7005 177.238C5.1716 177.121 4.66226 177.473 4.54474 178.002C4.01584 180.51 3.52609 183.136 3.11472 185.761C3.03635 186.29 3.38898 186.8 3.91788 186.878C3.97665 186.878 4.01584 186.878 4.07462 186.878H4.09415ZM61.4906 183.841C61.7452 183.841 61.9998 183.743 62.1957 183.547C62.5679 183.155 62.568 182.548 62.1762 182.156C60.2956 180.334 58.4542 178.453 56.7304 176.592C56.3582 176.2 55.7509 176.18 55.3395 176.553C54.9477 176.925 54.9282 177.532 55.2808 177.944C57.0438 179.825 58.9048 181.725 60.8049 183.567C61.0008 183.743 61.2359 183.841 61.4906 183.841ZM213.914 182.724C214.071 182.724 214.208 182.685 214.345 182.626C214.835 182.391 215.031 181.803 214.776 181.314C213.64 179.021 212.308 176.709 210.878 174.417C210.584 173.966 209.977 173.829 209.526 174.103C209.076 174.397 208.938 175.005 209.213 175.455C210.623 177.689 211.896 179.962 213.033 182.195C213.209 182.548 213.542 182.744 213.914 182.744V182.724ZM48.3462 169.323C48.5617 169.323 48.7772 169.264 48.9535 169.107C49.3844 168.774 49.4432 168.167 49.1102 167.736L48.3266 166.736C47.0141 165.051 45.7213 163.288 44.4872 161.485C44.1737 161.035 43.5664 160.917 43.1159 161.231C42.6653 161.544 42.5478 162.152 42.8612 162.583C44.1149 164.405 45.4274 166.207 46.7594 167.932L47.5431 168.95C47.739 169.205 48.0328 169.323 48.307 169.323H48.3462ZM8.40381 167.755C8.81519 167.755 9.207 167.481 9.34412 167.05C9.75549 165.698 10.1668 164.366 10.6174 163.033C10.9896 161.917 11.4009 160.8 11.8123 159.683C12.0082 159.174 11.7536 158.605 11.2443 158.429C10.735 158.233 10.1668 158.488 9.99054 158.997C9.55957 160.134 9.16779 161.27 8.776 162.406C8.32544 163.758 7.8945 165.11 7.48312 166.482C7.32642 166.991 7.62024 167.54 8.14914 167.696C8.24707 167.716 8.34503 167.736 8.4234 167.736L8.40381 167.755ZM203.16 166.384C203.375 166.384 203.591 166.305 203.786 166.168C204.198 165.816 204.276 165.208 203.924 164.797C202.317 162.818 200.554 160.819 198.713 158.86C198.341 158.468 197.714 158.449 197.322 158.821C196.93 159.193 196.911 159.8 197.283 160.212C199.085 162.152 200.809 164.131 202.396 166.051C202.592 166.286 202.866 166.403 203.16 166.403V166.384ZM37.5526 153.002C37.7093 153.002 37.866 152.963 38.0227 152.884C38.4928 152.629 38.6691 152.022 38.4145 151.552C37.1804 149.279 36.005 146.947 34.9276 144.616C34.6925 144.126 34.1049 143.911 33.6347 144.146C33.145 144.381 32.9295 144.949 33.145 145.439C34.242 147.829 35.4369 150.2 36.6906 152.492C36.8669 152.825 37.2 153.002 37.5526 153.002ZM189.643 152.238C189.898 152.238 190.172 152.14 190.368 151.924C190.74 151.532 190.701 150.905 190.309 150.533C188.389 148.77 186.391 147.006 184.393 145.321C183.982 144.969 183.355 145.027 183.022 145.439C182.669 145.85 182.728 146.477 183.139 146.81C185.118 148.476 187.077 150.219 188.997 151.963C189.193 152.14 189.428 152.218 189.663 152.218L189.643 152.238ZM15.6322 149.573C15.9848 149.573 16.3375 149.377 16.5138 149.044C17.6891 146.712 18.9624 144.44 20.2945 142.265C20.5687 141.795 20.4316 141.207 19.9614 140.913C19.4913 140.639 18.9036 140.776 18.6098 141.246C17.2581 143.46 15.9652 145.791 14.7703 148.162C14.5352 148.652 14.7115 149.24 15.2013 149.475C15.3384 149.553 15.4951 149.573 15.6518 149.573H15.6322ZM174.559 139.757C174.853 139.757 175.147 139.62 175.343 139.365C175.676 138.934 175.578 138.307 175.147 137.993C173.051 136.446 170.896 134.898 168.722 133.428C168.271 133.134 167.664 133.232 167.37 133.683C167.057 134.134 167.174 134.741 167.625 135.035C169.78 136.504 171.915 138.013 173.972 139.561C174.148 139.698 174.344 139.757 174.559 139.757ZM29.6973 135.094C29.7952 135.094 29.9128 135.094 30.0107 135.035C30.52 134.859 30.7943 134.31 30.618 133.801C30.1674 132.507 29.7561 131.175 29.3643 129.862C30.2458 128.863 31.1469 127.883 32.0676 126.943C32.4397 126.551 32.4397 125.944 32.0676 125.552C31.6758 125.18 31.0685 125.18 30.6767 125.552C30.0303 126.218 29.3839 126.904 28.7374 127.609C28.6199 127.178 28.5023 126.767 28.4044 126.336C28.2672 125.807 27.7384 125.493 27.2095 125.63C26.6805 125.767 26.3671 126.296 26.5042 126.825C26.7197 127.668 26.9548 128.51 27.1898 129.353C26.5826 130.058 25.9949 130.764 25.4072 131.489C25.0742 131.92 25.133 132.527 25.564 132.86C25.9949 133.193 26.6022 133.134 26.9352 132.703C27.229 132.331 27.5424 131.959 27.8559 131.587C28.1497 132.527 28.4436 133.467 28.757 134.388C28.8941 134.8 29.2859 135.055 29.6777 135.055L29.6973 135.094ZM158.261 128.902C158.594 128.902 158.927 128.726 159.103 128.432C159.378 127.962 159.221 127.374 158.771 127.08C156.537 125.748 154.226 124.435 151.914 123.201C151.444 122.946 150.837 123.122 150.582 123.593C150.328 124.063 150.504 124.67 150.974 124.925C153.266 126.159 155.538 127.452 157.752 128.765C157.909 128.863 158.085 128.902 158.261 128.902ZM140.944 119.772C141.317 119.772 141.669 119.556 141.826 119.204C142.061 118.714 141.826 118.126 141.356 117.911C138.985 116.813 136.556 115.755 134.147 114.756C133.638 114.56 133.069 114.795 132.874 115.285C132.658 115.775 132.913 116.363 133.402 116.559C135.792 117.538 138.202 118.596 140.553 119.674C140.69 119.733 140.827 119.772 140.964 119.772H140.944ZM40.2167 119.498C40.4126 119.498 40.6281 119.439 40.8044 119.302C42.8808 117.754 45.0552 116.343 47.2492 115.07C47.7193 114.795 47.8761 114.208 47.6018 113.737C47.3276 113.267 46.7399 113.11 46.2697 113.385C43.9974 114.697 41.7642 116.167 39.629 117.754C39.198 118.067 39.1001 118.694 39.4331 119.125C39.629 119.38 39.9228 119.517 40.2167 119.517V119.498ZM25.1918 116.049C25.1918 116.049 25.2702 116.049 25.3289 116.049C25.8578 115.971 26.23 115.481 26.1712 114.952C25.8186 112.366 25.5836 109.78 25.4464 107.232C25.4268 106.684 24.9371 106.272 24.4278 106.292C23.8793 106.312 23.4679 106.782 23.5071 107.311C23.6442 109.917 23.8793 112.562 24.2319 115.187C24.2906 115.677 24.7216 116.03 25.1918 116.03V116.049ZM271.154 115.05C271.369 115.05 271.565 114.991 271.741 114.854C272.172 114.521 272.251 113.914 271.918 113.483C270.37 111.445 268.666 109.388 266.883 107.389C266.531 106.978 265.904 106.939 265.492 107.311C265.081 107.664 265.042 108.29 265.414 108.702C267.158 110.681 268.823 112.699 270.351 114.697C270.546 114.952 270.84 115.089 271.134 115.089L271.154 115.05ZM122.766 112.503C123.177 112.503 123.549 112.248 123.686 111.837C123.863 111.327 123.588 110.779 123.059 110.602C120.532 109.76 118.005 108.996 115.518 108.31C114.989 108.173 114.46 108.467 114.303 108.996C114.166 109.525 114.46 110.054 114.989 110.191C117.457 110.857 119.945 111.621 122.433 112.464C122.53 112.503 122.648 112.523 122.746 112.523L122.766 112.503ZM57.416 110.25C57.5335 110.25 57.6315 110.25 57.749 110.191C60.1193 109.329 62.6071 108.584 65.1537 107.977C65.6826 107.84 65.9961 107.311 65.8785 106.801C65.761 106.272 65.2516 105.959 64.7032 106.076C62.0978 106.703 59.5513 107.468 57.1026 108.349C56.5933 108.526 56.3386 109.094 56.5149 109.603C56.652 109.995 57.0438 110.25 57.4356 110.25H57.416ZM103.823 107.605C104.293 107.605 104.704 107.272 104.783 106.801C104.881 106.272 104.528 105.763 103.999 105.665C101.374 105.195 98.7492 104.803 96.183 104.509C95.6541 104.431 95.1644 104.823 95.1056 105.371C95.0469 105.9 95.4386 106.39 95.9676 106.449C98.4946 106.743 101.08 107.115 103.646 107.585C103.705 107.585 103.764 107.585 103.823 107.585V107.605ZM76.5154 106.135C76.5154 106.135 76.5742 106.135 76.5938 106.135C79.1012 105.92 81.7066 105.802 84.3316 105.802C84.8801 105.802 85.311 105.371 85.311 104.823C85.311 104.274 84.8801 103.843 84.3316 103.843C81.6479 103.843 78.9837 103.96 76.4175 104.196C75.869 104.235 75.4772 104.725 75.536 105.254C75.5752 105.763 76.0061 106.155 76.5154 106.155V106.135ZM258.009 100.571C258.264 100.571 258.519 100.473 258.715 100.257C259.087 99.8655 259.067 99.2385 258.675 98.8662C256.854 97.1225 254.875 95.3591 252.818 93.5761C252.407 93.2235 251.8 93.2626 251.427 93.6741C251.075 94.0855 251.114 94.6929 251.525 95.0652C253.563 96.809 255.502 98.5723 257.304 100.277C257.5 100.453 257.735 100.551 257.97 100.551L258.009 100.571ZM24.7216 96.4955C25.2309 96.4955 25.6423 96.1036 25.701 95.5942C25.9361 93.0079 26.2888 90.4412 26.7785 87.9333C26.8764 87.4043 26.5239 86.8949 25.9949 86.7774C25.466 86.6794 24.9567 87.0125 24.8392 87.5611C24.3495 90.1278 23.9772 92.7728 23.7421 95.4179C23.703 95.9469 24.0948 96.4367 24.6237 96.4759C24.6629 96.4759 24.6824 96.4759 24.7216 96.4759V96.4955ZM243.102 87.8746C243.396 87.8746 243.69 87.7374 243.866 87.5023C244.199 87.0712 244.121 86.4639 243.69 86.1308C241.633 84.5241 239.537 82.9371 237.441 81.3697C237.01 81.0562 236.402 81.1346 236.069 81.5656C235.756 81.9967 235.834 82.604 236.265 82.9371C238.361 84.485 240.438 86.072 242.495 87.659C242.671 87.7962 242.886 87.8746 243.102 87.8746ZM28.9333 77.4119C29.3251 77.4119 29.7169 77.1572 29.854 76.7653C30.5201 74.9236 31.284 73.0818 32.1068 71.2989C32.3614 70.7503 32.6161 70.2017 32.8903 69.6727C33.1254 69.1828 32.9295 68.595 32.4594 68.3599C31.9696 68.1248 31.382 68.3207 31.1469 68.8106C30.8727 69.3592 30.5984 69.9274 30.3438 70.4956C29.5014 72.3177 28.7178 74.2182 28.0126 76.1188C27.8363 76.6282 28.091 77.1964 28.6003 77.3727C28.7178 77.4119 28.8158 77.4315 28.9333 77.4315V77.4119ZM227.352 76.1971C227.666 76.1971 227.96 76.06 228.155 75.7857C228.469 75.3546 228.371 74.7276 227.94 74.4142L221.573 69.8294C221.143 69.5159 220.516 69.6139 220.202 70.0645C219.889 70.4956 219.987 71.1225 220.437 71.436L226.804 76.0208C226.98 76.1383 227.176 76.1971 227.372 76.1971H227.352ZM211.368 64.8724C211.681 64.8724 211.994 64.7156 212.171 64.4413C212.484 63.9907 212.367 63.3833 211.916 63.0894C209.742 61.6199 207.567 60.17 205.354 58.7594C204.903 58.4655 204.296 58.6026 204.002 59.0532C203.708 59.5039 203.845 60.1113 204.296 60.4052C206.49 61.7963 208.664 63.2461 210.819 64.7156C210.995 64.8332 211.172 64.892 211.368 64.892V64.8724ZM38.3165 60.3268C38.5907 60.3268 38.8846 60.2092 39.0805 59.9741C40.7652 57.9364 42.5674 56.1143 44.4675 54.586C44.8789 54.253 44.9573 53.626 44.6047 53.2145C44.2717 52.7835 43.6448 52.7247 43.2334 53.0578C41.2353 54.684 39.3156 56.5845 37.5526 58.7202C37.2195 59.1316 37.2783 59.7586 37.6897 60.0917C37.866 60.2484 38.0814 60.3072 38.3165 60.3072V60.3268ZM194.736 54.5469C195.089 54.5469 195.422 54.3705 195.598 54.0374C195.853 53.5672 195.696 52.9598 195.206 52.7051C192.836 51.3924 190.485 50.1776 188.193 49.0804C187.704 48.8453 187.116 49.0608 186.881 49.531C186.646 50.0209 186.842 50.6087 187.332 50.8438C189.584 51.9214 191.915 53.1362 194.247 54.4097C194.403 54.4881 194.56 54.5273 194.717 54.5273L194.736 54.5469ZM53.9879 48.9237C54.1054 48.9237 54.2425 48.9041 54.3601 48.8453C56.5149 47.944 58.9048 47.1015 61.6472 46.2786C62.1566 46.1219 62.4504 45.5733 62.2937 45.0638C62.137 44.5544 61.5885 44.2605 61.0792 44.4173C58.2583 45.2598 55.8293 46.1219 53.5961 47.0623C53.1064 47.2778 52.8713 47.846 53.0672 48.3359C53.2239 48.7081 53.5961 48.9433 53.9683 48.9433L53.9879 48.9237ZM176.969 46.357C177.361 46.357 177.733 46.1219 177.89 45.7104C178.085 45.201 177.811 44.6328 177.321 44.4565C174.892 43.5552 172.365 42.6931 169.858 41.9094C169.329 41.7526 168.8 42.0465 168.643 42.5559C168.487 43.0654 168.781 43.614 169.29 43.7707C171.778 44.5348 174.266 45.3773 176.655 46.2786C176.773 46.3178 176.89 46.3374 176.988 46.3374L176.969 46.357ZM72.7347 43.3201C72.7347 43.3201 72.8915 43.3201 72.9502 43.3005C75.4772 42.7127 78.0238 42.1445 80.5704 41.6351C81.0993 41.5175 81.452 41.0081 81.3344 40.4791C81.2365 39.9501 80.7076 39.617 80.1787 39.7149C77.6125 40.244 75.0463 40.7926 72.4997 41.3999C71.9708 41.5175 71.6378 42.0465 71.7749 42.5755C71.8728 43.0262 72.2842 43.3397 72.7347 43.3397V43.3201ZM158.183 40.8513C158.633 40.8513 159.045 40.5379 159.143 40.0872C159.26 39.5582 158.927 39.0292 158.398 38.9116C155.852 38.363 153.246 37.8536 150.661 37.4226C150.132 37.3246 149.622 37.6969 149.544 38.2259C149.466 38.7549 149.818 39.2643 150.347 39.3427C152.913 39.7541 155.48 40.2636 157.987 40.8122C158.065 40.8122 158.124 40.8317 158.202 40.8317L158.183 40.8513ZM91.9517 39.5974C91.9517 39.5974 92.0497 39.5974 92.1085 39.5974C94.6942 39.2055 97.2996 38.8529 99.8462 38.559C100.375 38.5002 100.767 38.0104 100.708 37.4813C100.649 36.9523 100.14 36.5409 99.6307 36.6193C97.0645 36.9132 94.4396 37.2658 91.8342 37.6577C91.3053 37.7361 90.9331 38.2455 91.0115 38.7745C91.0898 39.2643 91.5012 39.617 91.9713 39.617L91.9517 39.5974ZM138.829 37.8928C139.338 37.8928 139.749 37.5009 139.808 36.9915C139.847 36.4625 139.456 35.9727 138.927 35.9335C136.341 35.6984 133.696 35.522 131.071 35.4045C130.484 35.3457 130.072 35.7963 130.053 36.3449C130.033 36.8936 130.444 37.3442 130.993 37.3638C133.598 37.4813 136.223 37.6577 138.77 37.8928C138.809 37.8928 138.829 37.8928 138.868 37.8928H138.829ZM111.423 37.5401C111.423 37.5401 111.463 37.5401 111.482 37.5401C114.088 37.3834 116.713 37.2854 119.279 37.2266C119.827 37.2266 120.258 36.776 120.239 36.2274C120.239 35.6788 119.847 35.2869 119.239 35.2673C116.654 35.3261 113.99 35.4241 111.365 35.5808C110.816 35.62 110.405 36.0707 110.444 36.6193C110.483 37.1483 110.914 37.5401 111.423 37.5401Z" fill="#50448C"/>
<path d="M265.703 92.6553H518.58C527.917 92.6553 535.486 100.226 535.486 109.564V606.384C535.486 615.722 527.917 623.293 518.58 623.293H265.703C256.367 623.293 248.798 615.722 248.798 606.384V109.564C248.798 100.226 256.367 92.6553 265.703 92.6553Z" fill="url(#paint0_linear_0_101)"/>
<path d="M260.551 109.584L260.551 606.384C260.551 609.225 262.863 611.537 265.703 611.537H518.58C521.421 611.537 523.732 609.225 523.732 606.384V109.564C523.732 106.723 521.421 104.411 518.58 104.411L265.723 104.411C262.882 104.411 260.571 106.723 260.571 109.564L260.551 109.584Z" fill="url(#paint1_linear_0_101)"/>
<path d="M587.044 518.235C587.181 518.235 587.338 518.196 587.475 518.137C589.826 516.981 592.157 515.708 594.429 514.376C594.899 514.101 595.056 513.494 594.782 513.024C594.508 512.553 593.9 512.416 593.45 512.671C591.217 513.984 588.925 515.238 586.633 516.374C586.143 516.609 585.947 517.197 586.182 517.687C586.359 518.039 586.692 518.235 587.064 518.235H587.044ZM603.695 507.988C603.891 507.988 604.106 507.93 604.283 507.792C606.379 506.225 608.455 504.56 610.434 502.835C610.845 502.483 610.884 501.856 610.532 501.444C610.179 501.033 609.552 500.994 609.141 501.346C607.182 503.031 605.145 504.677 603.088 506.205C602.657 506.538 602.559 507.146 602.892 507.577C603.088 507.832 603.382 507.969 603.675 507.969L603.695 507.988ZM618.269 494.939C618.524 494.939 618.798 494.841 618.975 494.626C620.777 492.706 622.52 490.707 624.185 488.67C624.518 488.258 624.46 487.631 624.048 487.298C623.637 486.965 623.01 487.024 622.677 487.435C621.051 489.434 619.327 491.393 617.564 493.274C617.192 493.666 617.212 494.293 617.603 494.665C617.799 494.841 618.034 494.939 618.269 494.939ZM630.356 479.559C630.669 479.559 630.983 479.402 631.179 479.108C632.628 476.894 634 474.621 635.273 472.349C635.527 471.878 635.371 471.271 634.901 471.016C634.43 470.742 633.823 470.918 633.569 471.389C632.315 473.622 630.963 475.875 629.553 478.031C629.259 478.481 629.376 479.089 629.847 479.382C630.003 479.48 630.199 479.539 630.376 479.539L630.356 479.559ZM639.543 462.278C639.915 462.278 640.288 462.043 640.444 461.67C640.954 460.475 641.443 459.26 641.894 458.026C642.364 456.792 642.815 455.538 643.246 454.264C643.422 453.755 643.148 453.206 642.638 453.03C642.129 452.854 641.561 453.128 641.404 453.637C640.993 454.872 640.542 456.106 640.092 457.321C639.641 458.516 639.171 459.711 638.662 460.887C638.446 461.377 638.681 461.964 639.191 462.16C639.308 462.219 639.445 462.239 639.563 462.239L639.543 462.278ZM645.538 443.645C645.988 443.645 646.38 443.351 646.497 442.9C647.085 440.432 647.634 437.826 648.104 435.181C648.202 434.652 647.849 434.142 647.32 434.044C646.791 433.966 646.282 434.299 646.184 434.828C645.714 437.434 645.165 440.001 644.597 442.45C644.48 442.979 644.793 443.508 645.322 443.625C645.4 443.625 645.479 443.645 645.557 443.645H645.538ZM648.848 424.346C649.338 424.346 649.769 423.973 649.828 423.484C650.121 420.995 650.376 418.35 650.592 415.646C650.631 415.098 650.239 414.628 649.69 414.588C649.142 414.549 648.672 414.941 648.633 415.49C648.417 418.174 648.163 420.78 647.869 423.249C647.81 423.778 648.182 424.267 648.731 424.326C648.77 424.326 648.809 424.326 648.848 424.326V424.346ZM650.356 404.812C650.885 404.812 651.316 404.4 651.336 403.871C651.453 401.246 651.551 398.64 651.63 396.014C651.63 395.466 651.218 395.015 650.67 395.015C650.161 395.015 649.671 395.426 649.671 395.975C649.593 398.581 649.495 401.187 649.377 403.793C649.357 404.341 649.769 404.792 650.317 404.812H650.356ZM650.885 385.219C651.414 385.219 651.865 384.787 651.865 384.239C651.865 382.926 651.884 381.613 651.884 380.301C651.884 378.988 651.884 377.675 651.865 376.382C651.865 375.833 651.414 375.304 650.866 375.422C650.317 375.422 649.886 375.873 649.906 376.421C649.906 377.714 649.926 379.027 649.926 380.32C649.926 381.613 649.926 382.926 649.906 384.239C649.906 384.787 650.337 385.219 650.885 385.219ZM650.513 365.625C650.513 365.625 650.552 365.625 650.572 365.625C651.12 365.586 651.532 365.136 651.493 364.587C651.336 361.883 651.14 359.238 650.905 356.73C650.846 356.201 650.376 355.809 649.847 355.849C649.318 355.907 648.907 356.378 648.966 356.907C649.201 359.395 649.397 362.02 649.534 364.685C649.553 365.214 650.004 365.606 650.513 365.606V365.625ZM648.437 346.15C648.437 346.15 648.535 346.15 648.593 346.15C649.122 346.072 649.495 345.562 649.397 345.014C648.966 342.388 648.456 339.782 647.888 337.274C647.771 336.745 647.242 336.432 646.713 336.53C646.184 336.647 645.851 337.176 645.969 337.705C646.517 340.174 647.026 342.741 647.438 345.347C647.516 345.837 647.927 346.17 648.398 346.17L648.437 346.15ZM643.853 327.125C643.951 327.125 644.049 327.125 644.166 327.086C644.676 326.91 644.95 326.361 644.793 325.852C643.97 323.344 643.03 320.855 642.031 318.446C641.816 317.936 641.248 317.701 640.758 317.917C640.268 318.132 640.013 318.7 640.229 319.19C641.208 321.561 642.129 324.01 642.932 326.459C643.069 326.871 643.442 327.125 643.853 327.125ZM541.303 322.403C541.303 322.403 541.362 322.403 541.382 322.403C543.987 322.188 546.632 321.737 549.257 321.071C549.786 320.934 550.099 320.405 549.962 319.876C549.825 319.347 549.296 319.033 548.767 319.17C546.24 319.817 543.713 320.248 541.205 320.444C540.657 320.483 540.265 320.953 540.304 321.502C540.344 322.011 540.775 322.403 541.284 322.403H541.303ZM529.628 321.698C530.059 321.698 530.471 321.404 530.569 320.953C530.706 320.424 530.373 319.895 529.863 319.758C528.433 319.406 527.278 318.896 526.337 318.25C525.456 317.642 524.711 316.858 524.085 315.938C523.791 315.487 523.183 315.369 522.733 315.663C522.282 315.957 522.165 316.565 522.459 317.015C523.223 318.152 524.143 319.112 525.221 319.856C526.376 320.66 527.728 321.247 529.393 321.659C529.472 321.678 529.55 321.698 529.628 321.698ZM560.011 316.976C560.168 316.976 560.305 316.937 560.442 316.878C562.773 315.702 565.085 314.351 567.298 312.862C567.749 312.568 567.866 311.96 567.573 311.51C567.279 311.059 566.671 310.941 566.221 311.235C564.066 312.685 561.813 313.998 559.561 315.134C559.071 315.369 558.875 315.957 559.13 316.447C559.306 316.78 559.639 316.996 560.011 316.996V316.976ZM635.998 309.217C636.154 309.217 636.331 309.178 636.487 309.1C636.957 308.825 637.134 308.238 636.86 307.767C635.547 305.455 634.137 303.183 632.667 301.047C632.354 300.596 631.747 300.479 631.316 300.792C630.865 301.106 630.748 301.713 631.061 302.144C632.491 304.241 633.882 306.455 635.155 308.727C635.332 309.041 635.665 309.217 636.017 309.217H635.998ZM521.283 306.122C521.773 306.122 522.184 305.769 522.263 305.279C522.596 302.771 523.242 300.322 524.202 297.971C524.398 297.461 524.163 296.893 523.673 296.697C523.183 296.482 522.596 296.736 522.4 297.226C521.381 299.734 520.676 302.34 520.323 305.024C520.245 305.553 520.637 306.043 521.166 306.122C521.205 306.122 521.244 306.122 521.303 306.122H521.283ZM575.898 305.632C576.133 305.632 576.388 305.534 576.584 305.357C577.191 304.77 577.779 304.182 578.366 303.574C579.6 302.301 580.815 300.949 581.99 299.558C582.343 299.146 582.284 298.519 581.873 298.167C581.461 297.814 580.834 297.873 580.482 298.284C579.326 299.636 578.131 300.949 576.936 302.203C576.368 302.791 575.8 303.359 575.193 303.927C574.801 304.299 574.781 304.926 575.173 305.318C575.369 305.514 575.624 305.612 575.878 305.612L575.898 305.632ZM624.558 293.366C624.793 293.366 625.028 293.288 625.224 293.112C625.615 292.74 625.655 292.132 625.282 291.721C623.461 289.761 621.56 287.9 619.601 286.176C619.19 285.823 618.583 285.862 618.23 286.274C617.878 286.685 617.917 287.293 618.328 287.665C620.228 289.33 622.089 291.133 623.872 293.053C624.068 293.269 624.322 293.366 624.597 293.366H624.558ZM588.278 290.486C588.592 290.486 588.905 290.33 589.101 290.055C590.492 287.959 591.883 285.686 593.234 283.335C593.509 282.865 593.352 282.277 592.882 282.003C592.412 281.728 591.824 281.885 591.55 282.355C590.218 284.687 588.846 286.901 587.475 288.978C587.181 289.428 587.299 290.036 587.749 290.33C587.906 290.447 588.102 290.486 588.298 290.486H588.278ZM529.589 288.703C529.863 288.703 530.118 288.586 530.314 288.37C531.959 286.529 533.86 284.804 535.936 283.198C536.367 282.865 536.445 282.257 536.112 281.826C535.779 281.395 535.172 281.317 534.741 281.65C532.567 283.335 530.588 285.157 528.864 287.077C528.512 287.489 528.531 288.096 528.943 288.468C529.139 288.645 529.354 288.723 529.589 288.723V288.703ZM609.474 280.984C609.807 280.984 610.14 280.807 610.316 280.513C610.59 280.043 610.453 279.455 609.983 279.162C608.965 278.554 607.946 277.966 606.888 277.418C605.595 276.732 604.263 276.085 602.911 275.498C602.422 275.282 601.834 275.498 601.619 276.007C601.403 276.497 601.619 277.085 602.128 277.3C603.44 277.888 604.733 278.515 605.987 279.162C607.006 279.691 608.005 280.259 608.984 280.847C609.141 280.945 609.317 280.984 609.493 280.984H609.474ZM545.398 277.359C545.535 277.359 545.672 277.32 545.809 277.261C548.101 276.183 550.53 275.263 552.998 274.479C553.508 274.322 553.801 273.773 553.645 273.244C553.488 272.735 552.939 272.441 552.411 272.598C549.864 273.401 547.376 274.381 544.986 275.478C544.496 275.713 544.281 276.281 544.516 276.771C544.673 277.124 545.045 277.339 545.398 277.339V277.359ZM591.413 273.617C591.844 273.617 592.255 273.323 592.353 272.872C592.49 272.343 592.157 271.814 591.628 271.697C589.101 271.07 586.476 270.58 583.832 270.227C583.303 270.149 582.793 270.541 582.735 271.07C582.656 271.599 583.048 272.108 583.577 272.167C586.143 272.52 588.709 272.99 591.178 273.597C591.256 273.617 591.334 273.617 591.413 273.617ZM597.897 273.44C598.249 273.44 598.602 273.244 598.778 272.892C599.934 270.541 601.05 268.17 602.147 265.78C602.363 265.29 602.147 264.702 601.658 264.486C601.168 264.251 600.58 264.486 600.365 264.976C599.287 267.347 598.171 269.698 597.015 272.03C596.78 272.52 596.976 273.107 597.466 273.342C597.603 273.401 597.76 273.44 597.897 273.44ZM564.164 272.03C564.164 272.03 564.242 272.03 564.282 272.03L564.615 271.991C567.063 271.716 569.571 271.54 572 271.501C572.548 271.501 572.979 271.05 572.96 270.501C572.96 269.953 572.548 269.483 571.961 269.541C569.453 269.581 566.907 269.757 564.38 270.031L564.046 270.07C563.518 270.129 563.126 270.619 563.185 271.148C563.243 271.657 563.674 272.01 564.164 272.01V272.03ZM606.007 255.611C606.379 255.611 606.751 255.395 606.908 255.023C607.946 252.613 608.945 250.203 609.924 247.754C610.12 247.245 609.885 246.676 609.376 246.48C608.867 246.285 608.299 246.52 608.103 247.029C607.143 249.459 606.144 251.849 605.105 254.239C604.89 254.729 605.105 255.317 605.615 255.532C605.732 255.591 605.869 255.611 606.007 255.611ZM613 237.311C613.411 237.311 613.803 237.037 613.94 236.625C614.763 234.039 615.507 231.472 616.115 229.023C616.252 228.494 615.919 227.965 615.409 227.828C614.88 227.691 614.352 228.024 614.214 228.533C613.607 230.943 612.902 233.451 612.079 235.998C611.922 236.508 612.197 237.056 612.706 237.233C612.804 237.272 612.902 237.272 613 237.272V237.311ZM617.31 218.227C617.799 218.227 618.23 217.855 618.289 217.365C618.602 214.701 618.798 212.036 618.837 209.45C618.837 208.901 618.407 208.47 617.878 208.45C617.329 208.372 616.898 208.881 616.879 209.41C616.839 211.918 616.663 214.524 616.35 217.13C616.291 217.659 616.663 218.149 617.212 218.227C617.251 218.227 617.29 218.227 617.329 218.227H617.31Z" fill="#50448C"/>
<mask id="mask0_0_101" style="mask-type:alpha" maskUnits="userSpaceOnUse" x="260" y="104" width="264" height="508">
<path d="M260.551 109.584L260.551 606.384C260.551 609.225 262.863 611.537 265.703 611.537H518.58C521.421 611.537 523.732 609.225 523.732 606.384V109.564C523.732 106.723 521.421 104.411 518.58 104.411L265.723 104.411C262.882 104.411 260.571 106.723 260.571 109.564L260.551 109.584Z" fill="url(#paint2_linear_0_101)"/>
</mask>
<g mask="url(#mask0_0_101)">
<g filter="url(#filter0_d_0_101)">
<path d="M125.182 390.392C123.038 382.39 127.787 374.165 135.789 372.02L303.557 327.058C311.559 324.914 319.783 329.662 321.927 337.664L354.519 459.324C356.663 467.326 351.914 475.551 343.912 477.696L176.144 522.658C168.142 524.802 159.918 520.054 157.774 512.052L125.182 390.392Z" fill="#8F6DFF"/>
</g>
<path d="M228.259 454.836L217.532 457.711L212.109 449.485L192.156 454.832L191.572 464.668L180.917 467.524L184.996 412.654L197.225 409.376L228.259 454.836ZM194.2 422.402L192.826 444.742L206.557 441.062L194.2 422.402Z" fill="white"/>
<path d="M219.679 403.359L239.56 398.031C246.425 396.191 252.793 397.071 258.663 400.67C264.567 404.209 268.474 409.539 270.381 416.659C272.288 423.779 271.57 430.348 268.225 436.366C264.941 442.419 259.867 446.365 253.001 448.205L233.12 453.533L219.679 403.359ZM240.455 441.427L250.467 438.744C254.805 437.581 257.949 435.202 259.899 431.606C261.823 427.915 262.17 423.776 260.941 419.189C259.699 414.554 257.336 411.167 253.85 409.028C250.351 406.841 246.433 406.329 242.094 407.492L232.082 410.175L240.455 441.427Z" fill="white"/>
<path d="M284.96 412.137C285.37 413.666 287.891 414.399 292.524 414.335C294.139 414.261 295.631 414.297 296.998 414.442C298.353 414.54 299.765 414.853 301.236 415.381C302.74 415.848 304.036 416.679 305.122 417.873C306.209 419.067 306.995 420.572 307.482 422.388C308.467 426.068 307.847 429.281 305.619 432.029C303.379 434.73 300.232 436.623 296.18 437.709C288.837 439.677 283.07 438.175 278.876 433.204L285.676 426.542C287.605 429.354 290.357 430.281 293.933 429.323C297.223 428.441 298.592 426.973 298.042 424.918C297.632 423.389 295.111 422.656 290.478 422.72C288.742 422.724 287.244 422.665 285.984 422.541C284.725 422.418 283.319 422.129 281.766 421.674C280.201 421.172 278.888 420.371 277.827 419.273C276.801 418.114 276.051 416.65 275.578 414.882C274.63 411.346 275.175 408.229 277.212 405.532C279.284 402.775 282.25 400.879 286.112 399.844C289.021 399.064 291.846 399.024 294.588 399.723C297.318 400.375 299.7 401.734 301.736 403.8L295.021 410.209C293.224 408.079 290.99 407.371 288.321 408.087C287.129 408.406 286.204 408.961 285.547 409.752C284.925 410.482 284.73 411.277 284.96 412.137Z" fill="white"/>
</g>
<g class="transX">
    <path d="M333.08 264.523C330.936 256.521 335.685 248.296 343.687 246.151L515.521 200.1C523.522 197.955 531.747 202.704 533.891 210.706L566.483 332.365C568.627 340.367 563.878 348.593 555.876 350.737L384.042 396.789C376.04 398.933 367.816 394.185 365.672 386.183L333.08 264.523Z" fill="#1D7D77"/>
    <path d="M327.08 258.523C324.936 250.521 329.685 242.295 337.687 240.151L509.52 194.099C517.522 191.955 525.747 196.703 527.891 204.705L560.483 326.365C562.627 334.367 557.878 342.592 549.876 344.737L378.042 390.789C370.04 392.933 361.816 388.185 359.672 380.182L327.08 258.523Z" fill="#3AC2BA"/>
    <path d="M432.19 322.419L421.463 325.294L416.04 317.068L396.087 322.415L395.503 332.251L384.847 335.107L388.927 280.237L401.156 276.959L432.19 322.419ZM398.13 289.985L396.757 312.325L410.488 308.645L398.13 289.985Z" fill="white"/>
    <path d="M423.609 270.942L443.49 265.614C450.356 263.774 456.723 264.654 462.593 268.253C468.498 271.792 472.404 277.122 474.312 284.242C476.219 291.362 475.501 297.931 472.156 303.949C468.872 310.002 463.797 313.948 456.932 315.788L437.051 321.116L423.609 270.942ZM444.385 309.01L454.397 306.327C458.736 305.164 461.88 302.785 463.829 299.189C465.753 295.498 466.101 291.359 464.872 286.772C463.63 282.137 461.266 278.75 457.781 276.611C454.282 274.424 450.364 273.912 446.025 275.075L436.013 277.758L444.385 309.01Z" fill="white"/>
    <path d="M488.891 279.72C489.3 281.249 491.822 281.982 496.455 281.918C498.07 281.844 499.561 281.88 500.929 282.025C502.284 282.123 503.696 282.436 505.166 282.964C506.671 283.431 507.967 284.262 509.053 285.456C510.14 286.65 510.926 288.155 511.412 289.971C512.398 293.651 511.777 296.864 509.55 299.612C507.309 302.313 504.163 304.206 500.11 305.292C492.768 307.26 487 305.758 482.807 300.787L489.607 294.125C491.536 296.937 494.288 297.864 497.864 296.906C501.153 296.024 502.523 294.556 501.972 292.501C501.563 290.972 499.042 290.239 494.409 290.303C492.672 290.307 491.174 290.248 489.915 290.124C488.656 290.001 487.25 289.712 485.697 289.257C484.132 288.755 482.819 287.954 481.758 286.856C480.732 285.697 479.982 284.233 479.508 282.465C478.561 278.929 479.106 275.812 481.143 273.116C483.214 270.358 486.181 268.462 490.043 267.427C492.951 266.647 495.777 266.607 498.519 267.306C501.248 267.958 503.631 269.317 505.666 271.383L498.952 277.792C497.155 275.662 494.921 274.954 492.251 275.67C491.059 275.989 490.135 276.544 489.478 277.335C488.856 278.065 488.66 278.86 488.891 279.72Z" fill="white"/>
</g>
<path d="M396.048 434.346C393.904 426.344 398.653 418.119 406.655 415.974L533.258 382.045C541.26 379.9 549.484 384.649 551.628 392.651L560.963 427.497C563.107 435.499 558.358 443.724 550.356 445.869L423.753 479.798C415.751 481.943 407.527 477.194 405.383 469.192L396.048 434.346Z" fill="#542CA7"/>
<path d="M390.048 428.346C387.904 420.344 392.653 412.119 400.655 409.974L527.258 376.044C535.26 373.9 543.484 378.648 545.628 386.651L554.963 421.496C557.107 429.499 552.358 437.724 544.356 439.868L417.753 473.798C409.751 475.943 401.527 471.194 399.383 463.192L390.048 428.346Z" fill="#8F6DFF"/>
<path d="M466.55 440.323L461.038 441.8L458.252 437.574L448 440.321L447.7 445.375L442.226 446.842L444.322 418.65L450.605 416.966L466.55 440.323ZM449.05 423.659L448.345 435.137L455.399 433.246L449.05 423.659Z" fill="white"/>
<path d="M462.141 413.875L472.356 411.137C475.883 410.192 479.155 410.644 482.171 412.493C485.205 414.312 487.212 417.05 488.192 420.708C489.172 424.366 488.802 427.742 487.084 430.833C485.397 433.943 482.789 435.971 479.262 436.916L469.047 439.654L462.141 413.875ZM472.816 433.434L477.96 432.055C480.189 431.458 481.804 430.235 482.806 428.388C483.794 426.492 483.973 424.365 483.341 422.008C482.703 419.627 481.489 417.886 479.698 416.787C477.901 415.664 475.887 415.401 473.658 415.998L468.514 417.377L472.816 433.434Z" fill="white"/>
<path d="M495.682 418.385C495.893 419.171 497.188 419.547 499.568 419.514C500.398 419.476 501.165 419.495 501.867 419.569C502.563 419.62 503.289 419.78 504.044 420.052C504.817 420.292 505.483 420.719 506.041 421.332C506.6 421.946 507.004 422.719 507.254 423.652C507.76 425.542 507.441 427.194 506.296 428.605C505.145 429.993 503.529 430.966 501.447 431.524C497.674 432.535 494.711 431.763 492.556 429.209L496.05 425.786C497.041 427.231 498.455 427.707 500.292 427.215C501.982 426.762 502.686 426.007 502.403 424.952C502.193 424.166 500.897 423.79 498.517 423.822C497.625 423.825 496.855 423.794 496.208 423.731C495.561 423.667 494.839 423.519 494.041 423.285C493.237 423.027 492.562 422.616 492.017 422.051C491.49 421.456 491.105 420.704 490.862 419.795C490.375 417.979 490.655 416.377 491.701 414.992C492.766 413.575 494.29 412.601 496.274 412.069C497.768 411.668 499.22 411.648 500.629 412.007C502.031 412.342 503.255 413.04 504.301 414.101L500.851 417.394C499.928 416.3 498.78 415.936 497.409 416.304C496.796 416.468 496.321 416.753 495.984 417.159C495.664 417.535 495.564 417.943 495.682 418.385Z" fill="white"/>
<g class="transX-reversed">
    <path d="M313.795 538.599C312.366 533.264 315.532 527.78 320.866 526.351L401.604 504.713C406.939 503.283 412.422 506.449 413.851 511.784L446.198 632.526C447.627 637.861 444.461 643.344 439.126 644.774L358.388 666.412C353.054 667.842 347.571 664.676 346.141 659.341L313.795 538.599Z" fill="#542CA7"/>
    <path d="M307.795 532.599C306.366 527.264 309.532 521.78 314.866 520.351L395.604 498.713C400.939 497.283 406.422 500.449 407.851 505.783L440.198 626.526C441.627 631.86 438.461 637.344 433.126 638.774L352.388 660.412C347.054 661.841 341.571 658.676 340.141 653.341L307.795 532.599Z" fill="#8F6DFF"/>
    <path d="M368.016 594.472L362.729 595.889L360.064 591.864L350.23 594.5L349.934 599.318L344.683 600.726L346.738 573.849L352.765 572.233L368.016 594.472ZM351.264 578.615L350.569 589.558L357.336 587.744L351.264 578.615Z" fill="white"/>
    <path d="M363.832 569.267L373.63 566.641C377.014 565.734 380.15 566.16 383.039 567.918C385.945 569.647 387.865 572.254 388.799 575.739C389.733 579.225 389.373 582.443 387.72 585.393C386.098 588.36 383.594 590.297 380.211 591.204L370.412 593.83L363.832 569.267ZM374.035 587.895L378.97 586.572C381.108 585.999 382.659 584.831 383.622 583.069C384.573 581.259 384.748 579.232 384.146 576.986C383.538 574.717 382.377 573.06 380.661 572.016C378.94 570.948 377.01 570.7 374.871 571.273L369.937 572.596L374.035 587.895Z" fill="white"/>
    <path d="M395.985 573.513C396.185 574.261 397.427 574.618 399.709 574.583C400.505 574.545 401.24 574.561 401.913 574.631C402.581 574.678 403.276 574.83 404 575.088C404.741 575.315 405.379 575.721 405.913 576.305C406.447 576.889 406.833 577.625 407.071 578.514C407.554 580.316 407.245 581.89 406.146 583.238C405.04 584.562 403.488 585.492 401.491 586.027C397.872 586.997 395.032 586.267 392.97 583.835L396.326 580.567C397.273 581.943 398.629 582.394 400.391 581.922C402.012 581.487 402.688 580.767 402.419 579.761C402.218 579.013 400.977 578.656 398.694 578.691C397.839 578.695 397.101 578.667 396.481 578.607C395.86 578.548 395.168 578.407 394.403 578.186C393.633 577.941 392.986 577.55 392.465 577.013C391.96 576.446 391.592 575.73 391.36 574.865C390.897 573.134 391.168 571.607 392.173 570.284C393.196 568.932 394.659 568.001 396.563 567.491C397.996 567.107 399.388 567.084 400.738 567.425C402.082 567.741 403.255 568.405 404.256 569.415L400.943 572.56C400.059 571.518 398.96 571.173 397.644 571.526C397.056 571.683 396.6 571.956 396.276 572.344C395.969 572.702 395.872 573.091 395.985 573.513Z" fill="white"/>
</g>
<path d="M370.329 176.729C370.838 176.729 371.289 176.318 371.308 175.789C371.446 173.202 371.622 170.577 371.857 168.01C371.916 167.481 371.504 166.991 370.975 166.952C370.447 166.893 369.957 167.305 369.918 167.834C369.683 170.44 369.487 173.065 369.35 175.691C369.33 176.239 369.741 176.69 370.27 176.709C370.27 176.709 370.309 176.709 370.329 176.709V176.729ZM372.347 157.254C372.817 157.254 373.228 156.901 373.307 156.431C373.718 153.844 374.188 151.258 374.697 148.77C374.815 148.241 374.462 147.712 373.933 147.614C373.424 147.516 372.876 147.849 372.778 148.378C372.249 150.905 371.779 153.511 371.367 156.137C371.289 156.666 371.641 157.175 372.19 157.254C372.249 157.254 372.288 157.254 372.347 157.254ZM612.158 139.698C612.158 139.698 612.314 139.698 612.373 139.679C612.902 139.561 613.235 139.032 613.098 138.503C612.961 137.935 612.824 137.347 612.687 136.779C612.549 136.25 612.021 135.936 611.492 136.074C610.963 136.211 610.649 136.74 610.786 137.269C610.924 137.817 611.061 138.386 611.198 138.954C611.296 139.404 611.707 139.718 612.158 139.718V139.698ZM376.5 138.111C376.931 138.111 377.322 137.837 377.44 137.386C378.145 134.878 378.909 132.371 379.732 129.941C379.908 129.432 379.634 128.883 379.105 128.707C378.596 128.53 378.047 128.805 377.871 129.334C377.048 131.802 376.265 134.33 375.559 136.877C375.422 137.406 375.716 137.935 376.245 138.092C376.323 138.111 376.421 138.131 376.519 138.131L376.5 138.111ZM608.142 126.826C608.259 126.826 608.377 126.806 608.494 126.767C609.004 126.571 609.239 126.003 609.063 125.493C608.122 123.064 607.064 120.615 605.909 118.244C605.674 117.754 605.086 117.558 604.596 117.793C604.107 118.028 603.911 118.616 604.146 119.106C605.262 121.438 606.3 123.828 607.241 126.218C607.397 126.61 607.77 126.845 608.161 126.845L608.142 126.826ZM382.964 119.635C383.336 119.635 383.708 119.42 383.865 119.047C384.884 116.657 385.981 114.286 387.137 111.994C387.372 111.504 387.176 110.916 386.706 110.681C386.216 110.446 385.628 110.642 385.393 111.112C384.237 113.444 383.121 115.854 382.083 118.283C381.867 118.773 382.083 119.361 382.592 119.576C382.709 119.635 382.847 119.655 382.984 119.655L382.964 119.635ZM599.346 109.349C599.523 109.349 599.699 109.31 599.875 109.192C600.326 108.898 600.463 108.291 600.189 107.84C598.798 105.626 597.309 103.432 595.742 101.296C595.428 100.865 594.802 100.767 594.371 101.08C593.94 101.394 593.842 102.021 594.155 102.452C595.683 104.548 597.152 106.704 598.524 108.879C598.719 109.172 599.033 109.329 599.346 109.329V109.349ZM391.995 102.256C392.328 102.256 392.641 102.099 392.817 101.786C394.189 99.5718 395.658 97.4166 397.147 95.3397C397.46 94.9087 397.362 94.2817 396.931 93.9682C396.5 93.6547 395.873 93.7527 395.56 94.1838C394.032 96.2802 392.543 98.4942 391.152 100.747C390.859 101.198 390.996 101.805 391.466 102.099C391.622 102.197 391.799 102.256 391.975 102.256H391.995ZM587.514 93.7527C587.75 93.7527 587.985 93.6743 588.18 93.498C588.592 93.1257 588.611 92.5183 588.259 92.1069C586.515 90.1672 584.654 88.2667 582.754 86.4249C582.362 86.0527 581.736 86.0527 581.363 86.4445C580.991 86.8364 580.991 87.4634 581.383 87.8356C583.244 89.6382 585.066 91.5191 586.79 93.4196C586.986 93.6351 587.24 93.7331 587.514 93.7331V93.7527ZM403.787 86.6404C404.062 86.6404 404.316 86.5425 404.512 86.327C406.275 84.4068 408.097 82.5651 409.978 80.8213C410.369 80.4491 410.389 79.8417 410.036 79.4302C409.664 79.0384 409.057 78.9992 408.645 79.3714C406.745 81.1348 404.865 83.0353 403.063 84.9946C402.69 85.3865 402.73 86.0135 403.121 86.3857C403.317 86.5621 403.552 86.6404 403.787 86.6404ZM573.214 80.4099C573.508 80.4099 573.782 80.2727 573.978 80.0376C574.311 79.6066 574.233 78.9992 573.822 78.6661C571.765 77.0399 569.63 75.4724 567.455 73.9834C567.005 73.6699 566.397 73.7874 566.084 74.2381C565.77 74.6887 565.888 75.2961 566.339 75.6096C568.474 77.0791 570.57 78.6269 572.607 80.2139C572.783 80.3511 572.999 80.4295 573.214 80.4295V80.4099ZM418.401 73.6699C418.597 73.6699 418.793 73.6111 418.969 73.4935C421.065 72.0045 423.259 70.5742 425.473 69.281C425.943 69.0067 426.099 68.3994 425.825 67.9487C425.551 67.4785 424.963 67.3217 424.493 67.596C422.24 68.9284 419.988 70.3783 417.852 71.9065C417.402 72.22 417.304 72.8274 417.617 73.278C417.813 73.5523 418.107 73.6895 418.421 73.6895L418.401 73.6699ZM556.877 69.6141C557.23 69.6141 557.563 69.4378 557.739 69.1047C557.994 68.6345 557.817 68.0271 557.347 67.7724C556.544 67.3217 555.721 66.8907 554.898 66.4792C553.37 65.6955 551.843 64.951 550.295 64.226C549.805 63.9909 549.218 64.226 549.002 64.6963C548.767 65.1861 549.002 65.7739 549.472 65.9894C551 66.6948 552.509 67.4393 553.997 68.2034C554.8 68.6149 555.604 69.0459 556.407 69.477C556.564 69.5553 556.72 69.5945 556.877 69.5945V69.6141ZM435.463 64.1477C435.6 64.1477 435.718 64.1281 435.855 64.0693C438.186 63.0701 440.615 62.1492 443.103 61.2871C443.612 61.1108 443.886 60.5622 443.71 60.0331C443.534 59.5237 442.985 59.2494 442.456 59.4258C439.929 60.2879 437.442 61.2479 435.071 62.2472C434.582 62.4627 434.347 63.0309 434.562 63.5403C434.719 63.9126 435.091 64.1281 435.463 64.1281V64.1477ZM539.012 61.6398C539.423 61.6398 539.795 61.3851 539.932 60.9932C540.109 60.4838 539.854 59.9156 539.345 59.7392C536.896 58.8576 534.369 58.0542 531.842 57.3097C531.313 57.153 530.784 57.4665 530.627 57.9759C530.471 58.5049 530.784 59.0339 531.293 59.1906C533.781 59.9156 536.269 60.7189 538.698 61.581C538.816 61.6202 538.914 61.6398 539.031 61.6398H539.012ZM454.073 58.0542C454.073 58.0542 454.23 58.0543 454.308 58.0347C456.757 57.4469 459.323 56.8983 461.928 56.4084C462.457 56.3105 462.81 55.8011 462.712 55.272C462.614 54.743 462.104 54.3904 461.576 54.4883C458.951 54.9781 456.345 55.5463 453.857 56.1341C453.328 56.2517 453.015 56.8003 453.133 57.3097C453.25 57.7604 453.642 58.0542 454.092 58.0542H454.073ZM520.147 56.4476C520.598 56.4476 521.009 56.1341 521.107 55.6639C521.205 55.1349 520.872 54.6255 520.343 54.5079C517.797 53.9985 515.172 53.5479 512.566 53.1756C512.037 53.0972 511.528 53.4695 511.45 53.9985C511.371 54.5275 511.743 55.0369 512.272 55.1153C514.839 55.4876 517.424 55.9186 519.951 56.428C520.01 56.428 520.088 56.428 520.147 56.428V56.4476ZM473.349 54.6647C473.349 54.6647 473.427 54.6647 473.466 54.6647C476.052 54.3708 478.657 54.1356 481.223 53.9789C481.772 53.9397 482.164 53.4695 482.144 52.9405C482.105 52.3919 481.654 52 481.106 52.0196C478.501 52.1959 475.856 52.4311 473.251 52.725C472.722 52.7837 472.33 53.2736 472.389 53.8026C472.448 54.2924 472.878 54.6647 473.368 54.6647H473.349ZM500.734 53.9397C501.244 53.9397 501.675 53.5479 501.714 53.0188C501.753 52.4702 501.342 52.0196 500.793 51.9804C498.188 51.8237 495.543 51.7257 492.918 51.6865C492.409 51.7061 491.939 52.1176 491.919 52.6466C491.919 53.1952 492.35 53.6262 492.879 53.6458C495.465 53.6654 498.09 53.7634 500.656 53.9201C500.676 53.9201 500.695 53.9201 500.715 53.9201L500.734 53.9397Z" fill="#50448C"/>
<g class="transX-reversed">
    <path d="M220.039 208.924C215.666 182.184 233.794 156.961 260.529 152.587C287.264 148.213 312.482 166.344 316.855 193.084C321.228 219.825 303.101 245.048 276.366 249.422C249.631 253.796 224.412 235.664 220.039 208.924Z" fill="url(#paint3_linear_0_101)"/>
    <path d="M253.381 237.896C232.998 229.572 223.221 206.298 231.543 185.911C239.865 165.524 263.135 155.745 283.518 164.069C303.901 172.393 313.678 195.667 305.356 216.054C297.033 236.441 273.764 246.22 253.381 237.896Z" fill="url(#paint4_linear_0_101)"/>
    <path d="M253.381 237.896C232.998 229.572 223.221 206.298 231.543 185.911C239.865 165.524 263.135 155.745 283.518 164.069C303.901 172.393 313.678 195.667 305.356 216.054C297.033 236.441 273.764 246.22 253.381 237.896Z" fill="url(#paint5_linear_0_101)"/>
    <path d="M268.446 179.785L261.55 193.755L246.134 195.989L257.299 206.863L254.655 222.224L268.446 214.974L282.236 222.224L279.592 206.863L290.758 195.989L275.341 193.755L268.446 179.785Z" fill="#3AC2BA"/>
</g>
<g class="transX-reversed">
    <path d="M644.191 177.392C646.985 160.251 635.357 144.089 618.219 141.295C601.081 138.5 584.923 150.13 582.129 167.271C579.335 184.413 590.963 200.574 608.101 203.369C625.239 206.163 641.397 194.533 644.191 177.392Z" fill="url(#paint6_linear_0_101)"/>
    <path d="M613.214 198.796C627.809 198.796 639.64 186.963 639.64 172.365C639.64 157.768 627.809 145.934 613.214 145.934C598.62 145.934 586.789 157.768 586.789 172.365C586.789 186.963 598.62 198.796 613.214 198.796Z" fill="url(#paint7_linear_0_101)"/>
    <path d="M613.214 198.796C627.809 198.796 639.64 186.963 639.64 172.365C639.64 157.768 627.809 145.934 613.214 145.934C598.62 145.934 586.789 157.768 586.789 172.365C586.789 186.963 598.62 198.796 613.214 198.796Z" fill="url(#paint8_linear_0_101)"/>
    <path d="M615.741 187.003V191.47H611.745V187.12C607.788 186.885 604.008 185.651 601.814 183.927L604.008 179.048C606.006 180.517 608.885 181.595 611.745 181.889V175.227C607.318 174.15 602.362 172.68 602.362 166.959C602.362 162.727 605.437 159.102 611.745 158.377V153.949H615.741V158.299C618.739 158.534 621.638 159.337 623.832 160.728L621.834 165.646C619.796 164.49 617.72 163.805 615.722 163.569V170.349C620.149 171.387 625.027 172.856 625.027 178.499C625.027 182.653 621.99 186.239 615.722 187.003H615.741ZM611.745 169.369V163.707C609.63 164.177 608.787 165.333 608.787 166.665C608.787 168.056 609.982 168.82 611.745 169.369ZM618.601 178.989C618.601 177.598 617.446 176.834 615.722 176.226V181.732C617.72 181.301 618.601 180.263 618.601 178.969V178.989Z" fill="#3AC2BA"/>
</g>
<path d="M394.596 200.245C405.895 188.944 405.895 170.622 394.596 159.32C383.297 148.019 364.978 148.019 353.679 159.32C342.38 170.622 342.38 188.944 353.679 200.245C364.978 211.547 383.297 211.547 394.596 200.245Z" fill="url(#paint9_linear_0_101)"/>
<path d="M391.341 196.99C400.843 187.487 400.843 172.079 391.341 162.576C381.84 153.073 366.435 153.073 356.934 162.576C347.432 172.079 347.432 187.487 356.934 196.99C366.435 206.493 381.84 206.493 391.341 196.99Z" fill="url(#paint10_linear_0_101)"/>
<path d="M391.341 196.99C400.843 187.487 400.843 172.079 391.341 162.576C381.84 153.073 366.435 153.073 356.934 162.576C347.432 172.079 347.432 187.487 356.934 196.99C366.435 206.493 381.84 206.493 391.341 196.99Z" fill="url(#paint11_linear_0_101)"/>
<path d="M382.882 184.402L386.66 187.923C384.236 190.902 380.561 192.514 376.087 192.514C369.589 192.514 364.445 188.839 362.756 183.293H358.604V180.211H362.201C362.163 179.876 362.163 179.554 362.163 179.218C362.163 178.883 362.163 178.561 362.201 178.225H358.604V175.143H362.756C364.445 169.598 369.589 165.923 376.087 165.923C380.574 165.923 384.236 167.535 386.66 170.475L382.882 173.995C381.116 172.009 378.95 170.978 376.384 170.978C373.109 170.978 370.466 172.551 369.112 175.13H378.408V178.212H368.197C368.158 178.548 368.158 178.87 368.158 179.205C368.158 179.541 368.158 179.863 368.197 180.198H378.408V183.28H369.112C370.466 185.847 373.122 187.433 376.384 187.433C378.95 187.433 381.129 186.401 382.882 184.39V184.402Z" fill="#3AC2BA"/>
<path d="M683.917 424.584C701.084 407.413 701.084 379.575 683.917 362.405C666.75 345.235 638.917 345.235 621.751 362.405C604.584 379.575 604.584 407.413 621.751 424.584C638.917 441.754 666.75 441.754 683.917 424.584Z" fill="url(#paint12_linear_0_101)"/>
<path d="M652.843 430.477C673.258 430.477 689.808 413.925 689.808 393.505C689.808 373.086 673.258 356.533 652.843 356.533C632.428 356.533 615.878 373.086 615.878 393.505C615.878 413.925 632.428 430.477 652.843 430.477Z" fill="url(#paint13_linear_0_101)"/>
<path d="M652.843 430.477C673.258 430.477 689.808 413.925 689.808 393.505C689.808 373.086 673.258 356.533 652.843 356.533C632.428 356.533 615.878 373.086 615.878 393.505C615.878 413.925 632.428 430.477 652.843 430.477Z" fill="url(#paint14_linear_0_101)"/>
<path d="M629.061 383.435C629.061 376.851 633.077 372.658 638.778 372.658C644.478 372.658 648.435 376.793 648.435 383.435C648.435 390.077 644.478 394.211 638.778 394.211C633.077 394.211 629.061 390.018 629.061 383.435ZM642.852 383.435C642.852 379.242 641.226 377.243 638.778 377.243C636.329 377.243 634.703 379.3 634.703 383.435C634.703 387.569 636.368 389.626 638.778 389.626C641.187 389.626 642.852 387.608 642.852 383.435ZM662.05 373.109H668.69L642.01 412.178H635.369L662.05 373.109ZM655.624 401.852C655.624 395.269 659.64 391.076 665.282 391.076C670.923 391.076 674.998 395.269 674.998 401.852C674.998 408.435 670.982 412.628 665.282 412.628C659.581 412.628 655.624 408.435 655.624 401.852ZM669.356 401.852C669.356 397.718 667.73 395.661 665.282 395.661C662.833 395.661 661.207 397.679 661.207 401.852C661.207 406.025 662.872 408.043 665.282 408.043C667.691 408.043 669.356 405.986 669.356 401.852Z" fill="#3AC2BA"/>
<g class="star">
    <path d="M276.084 0C273.87 11.9517 264.526 21.2976 252.577 23.5116C264.526 25.7256 273.87 35.0715 276.084 47.0232C278.297 35.0715 287.642 25.7256 299.591 23.5116C287.642 21.2976 278.297 11.9517 276.084 0Z" fill="url(#paint15_linear_0_101)"/>
</g>
<g class="star">
    <path d="M207.31 629.09C205.802 637.221 199.455 643.569 191.325 645.078C199.455 646.586 205.802 652.934 207.31 661.065C208.818 652.934 215.165 646.586 223.295 645.078C215.165 643.569 208.818 637.221 207.31 629.09Z" fill="url(#paint16_linear_0_101)"/>
</g>
<g class="star-reversed">
    <path d="M576.76 23.5117C575.252 31.6428 568.905 37.991 560.775 39.4996C568.905 41.0083 575.252 47.3564 576.76 55.4875C578.268 47.3564 584.615 41.0083 592.745 39.4996C584.615 37.991 578.268 31.6428 576.76 23.5117Z" fill="url(#paint17_linear_0_101)"/>
</g>
<g class="transX">
    <path d="M466.397 547.705C460.175 509.579 486.033 473.627 524.151 467.404C562.27 461.181 598.215 487.044 604.437 525.17C610.659 563.296 584.801 599.249 546.682 605.471C508.563 611.694 472.618 585.832 466.397 547.705Z" fill="url(#paint18_linear_0_101)"/>
    <path d="M514.804 589.392C485.573 577.993 471.115 545.051 482.512 515.814C493.909 486.577 526.845 472.116 556.076 483.515C585.307 494.915 599.765 527.857 588.368 557.094C576.972 586.331 544.036 600.791 514.804 589.392Z" fill="url(#paint19_linear_0_101)"/>
    <path d="M525.712 550.184H519.71L518.029 545.14H506.863L505.182 550.184H499.22L509.024 522.165H515.868L525.712 550.184ZM512.466 528.529L508.624 539.977H516.308L512.466 528.529Z" fill="#3AC2BA"/>
    <path d="M528.433 522.165H539.558C543.4 522.165 546.601 523.512 549.163 526.208C551.751 528.876 553.045 532.198 553.045 536.174C553.045 540.15 551.751 543.473 549.163 546.141C546.601 548.836 543.4 550.184 539.558 550.184H528.433V522.165ZM533.955 544.9H539.558C541.986 544.9 543.96 544.1 545.481 542.499C547.002 540.844 547.762 538.736 547.762 536.174C547.762 533.586 547.002 531.491 545.481 529.89C543.96 528.262 541.986 527.448 539.558 527.448H533.955V544.9Z" fill="#3AC2BA"/>
    <path d="M561.289 535.854C561.289 536.708 562.503 537.442 564.931 538.056C565.784 538.242 566.558 538.469 567.252 538.736C567.945 538.976 568.639 539.337 569.333 539.817C570.053 540.27 570.613 540.884 571.014 541.658C571.414 542.432 571.614 543.326 571.614 544.34C571.614 546.395 570.84 547.982 569.293 549.103C567.745 550.197 565.838 550.744 563.57 550.744C559.461 550.744 556.66 549.157 555.166 545.981L559.648 543.459C560.262 545.194 561.569 546.061 563.57 546.061C565.411 546.061 566.331 545.487 566.331 544.34C566.331 543.486 565.117 542.752 562.69 542.138C561.782 541.898 561.009 541.658 560.368 541.418C559.728 541.178 559.034 540.831 558.287 540.377C557.54 539.897 556.967 539.296 556.567 538.576C556.193 537.829 556.006 536.962 556.006 535.974C556.006 534 556.727 532.452 558.167 531.331C559.635 530.184 561.449 529.61 563.61 529.61C565.237 529.61 566.718 529.983 568.052 530.731C569.386 531.451 570.44 532.492 571.214 533.853L566.812 536.254C566.171 534.893 565.104 534.213 563.61 534.213C562.943 534.213 562.383 534.373 561.929 534.693C561.502 534.987 561.289 535.374 561.289 535.854Z" fill="#3AC2BA"/>
</g>
<defs>
<filter id="filter0_d_0_101" x="124.667" y="326.543" width="236.367" height="202.629" filterUnits="userSpaceOnUse" color-interpolation-filters="sRGB">
<feFlood flood-opacity="0" result="BackgroundImageFix"/>
<feColorMatrix in="SourceAlpha" type="matrix" values="0 0 0 0 0 0 0 0 0 0 0 0 0 0 0 0 0 0 127 0" result="hardAlpha"/>
<feOffset dx="6" dy="6"/>
<feComposite in2="hardAlpha" operator="out"/>
<feColorMatrix type="matrix" values="0 0 0 0 0.329412 0 0 0 0 0.172549 0 0 0 0 0.654902 0 0 0 1 0"/>
<feBlend mode="normal" in2="BackgroundImageFix" result="effect1_dropShadow_0_101"/>
<feBlend mode="normal" in="SourceGraphic" in2="effect1_dropShadow_0_101" result="shape"/>
</filter>
<linearGradient id="paint0_linear_0_101" x1="398.988" y1="87.9138" x2="385.682" y2="612.32" gradientUnits="userSpaceOnUse">
<stop stop-color="#263681"/>
<stop offset="1" stop-color="#1A1248"/>
</linearGradient>
<linearGradient id="paint1_linear_0_101" x1="565.418" y1="256.374" x2="298.645" y2="412.74" gradientUnits="userSpaceOnUse">
<stop stop-color="#9571CB"/>
<stop offset="0.24" stop-color="#8E69C9"/>
<stop offset="0.62" stop-color="#7B53C5"/>
<stop offset="1" stop-color="#6237C0"/>
</linearGradient>
<linearGradient id="paint2_linear_0_101" x1="565.418" y1="256.374" x2="298.645" y2="412.74" gradientUnits="userSpaceOnUse">
<stop stop-color="#9571CB"/>
<stop offset="0.24" stop-color="#8E69C9"/>
<stop offset="0.62" stop-color="#7B53C5"/>
<stop offset="1" stop-color="#6237C0"/>
</linearGradient>
<linearGradient id="paint3_linear_0_101" x1="299.211" y1="113.853" x2="258.127" y2="230.175" gradientUnits="userSpaceOnUse">
<stop stop-color="#24DFD4"/>
<stop offset="1" stop-color="#2DAEA6"/>
</linearGradient>
<linearGradient id="paint4_linear_0_101" x1="221.13" y1="142.663" x2="284.303" y2="220.506" gradientUnits="userSpaceOnUse">
<stop stop-color="#4AE5EF"/>
<stop offset="1" stop-color="#3FB8BF"/>
</linearGradient>
<linearGradient id="paint5_linear_0_101" x1="221.13" y1="142.663" x2="284.303" y2="220.506" gradientUnits="userSpaceOnUse">
<stop stop-color="#22B9B0"/>
<stop offset="1" stop-color="#1C7C76"/>
</linearGradient>
<linearGradient id="paint6_linear_0_101" x1="593.412" y1="116.48" x2="619.785" y2="191.026" gradientUnits="userSpaceOnUse">
<stop stop-color="#24DFD4"/>
<stop offset="1" stop-color="#2DAEA6"/>
</linearGradient>
<linearGradient id="paint7_linear_0_101" x1="656.866" y1="148.433" x2="598.595" y2="180.375" gradientUnits="userSpaceOnUse">
<stop stop-color="#4AE5EF"/>
<stop offset="1" stop-color="#3FB8BF"/>
</linearGradient>
<linearGradient id="paint8_linear_0_101" x1="656.866" y1="148.433" x2="598.595" y2="180.375" gradientUnits="userSpaceOnUse">
<stop stop-color="#22B9B0"/>
<stop offset="1" stop-color="#1C7C76"/>
</linearGradient>
<linearGradient id="paint9_linear_0_101" x1="389.402" y1="127.449" x2="369.024" y2="197.303" gradientUnits="userSpaceOnUse">
<stop stop-color="#24DFD4"/>
<stop offset="1" stop-color="#2DAEA6"/>
</linearGradient>
<linearGradient id="paint10_linear_0_101" x1="386.978" y1="135.779" x2="369.837" y2="194.518" gradientUnits="userSpaceOnUse">
<stop stop-color="#4AE5EF"/>
<stop offset="1" stop-color="#3FB8BF"/>
</linearGradient>
<linearGradient id="paint11_linear_0_101" x1="386.978" y1="135.779" x2="369.837" y2="194.518" gradientUnits="userSpaceOnUse">
<stop stop-color="#22B9B0"/>
<stop offset="1" stop-color="#1C7C76"/>
</linearGradient>
<linearGradient id="paint12_linear_0_101" x1="676.026" y1="313.982" x2="645.064" y2="420.114" gradientUnits="userSpaceOnUse">
<stop stop-color="#24DFD4"/>
<stop offset="1" stop-color="#2DAEA6"/>
</linearGradient>
<linearGradient id="paint13_linear_0_101" x1="713.903" y1="360.029" x2="632.393" y2="404.71" gradientUnits="userSpaceOnUse">
<stop stop-color="#4AE5EF"/>
<stop offset="1" stop-color="#3FB8BF"/>
</linearGradient>
<linearGradient id="paint14_linear_0_101" x1="713.903" y1="360.029" x2="632.393" y2="404.71" gradientUnits="userSpaceOnUse">
<stop stop-color="#22B9B0"/>
<stop offset="1" stop-color="#1C7C76"/>
</linearGradient>
<linearGradient id="paint15_linear_0_101" x1="283.9" y1="6.11302" x2="268.243" y2="40.9079" gradientUnits="userSpaceOnUse">
<stop stop-color="#9571CB"/>
<stop offset="1" stop-color="#6237C0"/>
</linearGradient>
<linearGradient id="paint16_linear_0_101" x1="212.638" y1="633.243" x2="201.978" y2="656.91" gradientUnits="userSpaceOnUse">
<stop stop-color="#263681"/>
<stop offset="1" stop-color="#1A1248"/>
</linearGradient>
<linearGradient id="paint17_linear_0_101" x1="582.069" y1="27.6654" x2="571.428" y2="51.3518" gradientUnits="userSpaceOnUse">
<stop stop-color="#263681"/>
<stop offset="1" stop-color="#1A1248"/>
</linearGradient>
<linearGradient id="paint18_linear_0_101" x1="579.321" y1="412.199" x2="520.688" y2="578.022" gradientUnits="userSpaceOnUse">
<stop stop-color="#24DFD4"/>
<stop offset="1" stop-color="#2DAEA6"/>
</linearGradient>
<linearGradient id="paint19_linear_0_101" x1="466.696" y1="454.427" x2="558.471" y2="563.913" gradientUnits="userSpaceOnUse">
<stop stop-color="#22B9B0"/>
<stop offset="1" stop-color="#1C7C76"/>
</linearGradient>
</defs>
    <style>
        .transX {
            animation: transX 3s infinite ease-in-out;
        }

        .transX-reversed {
            animation: transX-reversed 3s infinite ease-in-out;
        }

        .star {
            animation: star 3s infinite ease-in-out;
        }

        .star-reversed {
            animation: star-reversed 3s infinite ease-in-out;
        }

        
        @keyframes transX {
            0% {
                transform: translateY(5px);
            }
            50% {
                transform: translateY(-5px);
            }
            100% {
                transform: translateY(5px);
            }
        }

        @keyframes transX-reversed {
            0% {
                transform: translateY(-5px);
            }
            50% {
                transform: translateY(5px);
            }
            100% {
                transform: translateY(-5px);
            }
        }

            
        @keyframes stylus {
            0% {
                transform: translateY(5px);
            }
            50% {
                transform: translateY(-5px);
            }
            100% {
                transform: translateY(5px);
            }
        }

        @keyframes star {
            0% {
                opacity: 1;
            } 
            50% {
                opacity: 0.4;
            }
            100% {
                opacity: 1;
            }
        }

        @keyframes star-reversed {
            0% {
                opacity: 0.4;
            } 
            50% {
                opacity: 1;
            }
            100% {
                opacity: 0.4;
            }
        }
    </style>
</svg>
